<svg width="101" height="89" viewBox="0 0 101 89" fill="none" xmlns="http://www.w3.org/2000/svg">
<g clip-path="url(#clip0_627_1216)">
<mask id="mask0_627_1216" style="mask-type:luminance" maskUnits="userSpaceOnUse" x="0" y="0" width="101" height="89">
<path d="M101 0H0V89H101V0Z" fill="white"/>
</mask>
<g mask="url(#mask0_627_1216)">
<path d="M23.5667 11.4429C24.4083 11.4429 25.1097 10.7365 25.1097 9.88889C25.1097 9.04127 24.4083 8.33492 23.5667 8.33492C22.725 8.33492 21.9535 9.04127 21.9535 9.88889C22.0236 10.7365 22.725 11.4429 23.5667 11.4429Z" fill="#FFFBFE"/>
<path d="M17.3243 11.4429C18.166 11.4429 18.8673 10.7365 18.8673 9.88889C18.8673 9.04127 18.166 8.33492 17.3243 8.33492C16.4826 8.33492 15.7812 9.04127 15.7812 9.88889C15.7111 10.7365 16.4125 11.4429 17.3243 11.4429Z" fill="#FFFBFE"/>
<path d="M11.0819 11.4429C11.9236 11.4429 12.625 10.7365 12.625 9.88889C12.625 9.04127 11.9236 8.33492 11.0819 8.33492C10.2403 8.33492 9.53889 9.04127 9.53889 9.88889C9.46875 10.7365 10.1701 11.4429 11.0819 11.4429Z" fill="#FFFBFE"/>
<path d="M98.7556 2.11905C97.7736 1.2008 96.441 0.706352 95.1083 0.706352H5.9618C4.55902 0.706352 3.29652 1.2008 2.31458 2.11905C1.2625 3.0373 0.701385 4.2381 0.701385 5.58016V83.4198C0.701385 84.6913 1.2625 85.9627 2.24444 86.881C3.22639 87.7992 4.55902 88.2937 5.89166 88.2937H95.0382C96.441 88.2937 97.7035 87.7992 98.6854 86.881C99.6674 85.9627 100.228 84.7619 100.228 83.4198V5.58016C100.299 4.2381 99.7375 3.0373 98.7556 2.11905ZM98.4049 16.5992H77.4333V18.3651H98.4049V83.4198C98.4049 84.2675 97.984 85.0444 97.3528 85.6095C96.7215 86.1746 95.8799 86.5278 94.968 86.4571H5.9618C5.05 86.4571 4.27847 86.1746 3.57708 85.6095C2.94583 85.0444 2.59514 84.2675 2.525 83.4198V18.2944H35.2799V16.5286H2.59514V5.58016C2.59514 4.73254 3.01597 3.95556 3.64722 3.39048C4.20833 2.75477 5.12014 2.47223 5.9618 2.47223H95.0382C95.95 2.47223 96.7215 2.75476 97.4229 3.31984C98.0542 3.88492 98.4049 4.66191 98.475 5.50953V16.5992H98.4049Z" fill="#FFFBFE"/>
</g>
<path d="M66.7289 38.2841H70.2358C70.5164 38.2841 70.8671 38.1429 71.0775 37.931C71.2879 37.7191 71.4282 37.4365 71.4282 37.0833V33.5516C71.4282 33.2691 71.2879 32.9159 71.0775 32.704C70.8671 32.4921 70.5865 32.3508 70.2358 32.3508C69.8851 32.3508 69.6046 32.4921 69.3941 32.704C69.1837 32.9159 69.0434 33.1984 69.0434 33.5516V35.8825H66.7289C66.4483 35.8825 66.0976 36.0238 65.8872 36.2357C65.6768 36.4476 65.5365 36.7302 65.5365 37.0833C65.5365 37.3659 65.6768 37.7191 65.8872 37.931C66.0976 38.1429 66.4483 38.2841 66.7289 38.2841Z" fill="#FFFBFE"/>
<path d="M41.0313 37.0833C41.9431 37.0833 42.8549 36.8008 43.6264 36.3063C44.3979 35.8119 45.0292 35.0349 45.3799 34.1873C45.7306 33.3397 45.8007 32.3508 45.6604 31.4325C45.45 30.5143 45.0292 29.6667 44.3979 29.0309C43.7667 28.3952 42.925 27.9008 42.0132 27.7595C41.1014 27.5476 40.1896 27.6889 39.2778 28.0421C38.4361 28.3952 37.6646 29.031 37.1736 29.8079C36.6827 30.5849 36.4021 31.5032 36.4021 32.4214C36.4021 33.6929 36.8931 34.8936 37.8049 35.7413C38.6465 36.5889 39.8389 37.0833 41.0313 37.0833ZM41.0313 30.0198C41.5222 30.0198 41.9431 30.1611 42.3639 30.4436C42.7146 30.7262 43.0653 31.0794 43.2056 31.5032C43.416 31.927 43.416 32.4214 43.3458 32.8452C43.2757 33.269 43.0653 33.6929 42.7146 34.046C42.3639 34.3992 41.9431 34.6111 41.5222 34.6817C41.1014 34.7524 40.6104 34.7524 40.1896 34.5405C39.7688 34.3286 39.4181 34.046 39.1375 33.6929C38.857 33.3397 38.7167 32.8452 38.7167 32.3508C38.7167 31.7151 38.9972 31.15 39.4181 30.6556C39.8389 30.2317 40.4 30.0198 41.0313 30.0198Z" fill="#FFFBFE"/>
<path d="M27.6347 27.6183C27.5646 27.8302 27.5646 28.0421 27.6347 28.254C27.7049 28.4659 27.8451 28.6778 27.9854 28.819L31.7028 31.927C31.7028 31.9976 31.7028 33.1984 31.7028 33.1984L27.9854 35.8825C27.775 36.0944 27.6347 36.3064 27.5646 36.5889C27.4945 36.8714 27.5646 37.154 27.7049 37.3659L29.8792 41.1802C30.0195 41.3214 30.4403 41.604 31.0014 41.7452C31.5625 41.8159 31.9833 41.7452 32.1938 41.6746L35.9111 40.2619C36.1917 40.4032 36.4021 40.5444 36.6826 40.6857L37.4542 45.4889C37.5243 45.7714 37.6646 45.9833 37.875 46.1952C38.0854 46.4071 38.366 46.4778 38.6465 46.4778H39.2778V52.3405H35.7708C35.4903 52.3405 35.1396 52.4817 34.9292 52.6937C34.7188 52.9056 34.5785 53.1881 34.5785 53.5413V70.7056L24.4083 80.9476C24.2681 81.0889 24.1278 81.3008 24.0576 81.5833C23.9875 81.7952 24.0576 82.0778 24.1278 82.2897C24.1979 82.5016 24.3382 82.7135 24.5486 82.7841C24.759 82.9254 24.9695 82.996 25.1799 82.996H62.5639C62.7743 82.996 63.0549 82.9254 63.1951 82.7841C63.4056 82.6429 63.5458 82.5016 63.616 82.2897C63.6861 82.0778 63.7563 81.8659 63.6861 81.5833C63.616 81.3714 63.5458 81.1595 63.3354 80.9476L55.4799 73.0365V66.8206L58.075 62.4413C62.4938 65.1254 65.159 66.5381 66.0007 66.5381H73.0146C73.2951 66.5381 73.6458 66.3968 73.8563 66.1849C74.0667 65.973 74.207 65.6905 74.207 65.3373V58.7683L76.1708 56.7905C76.3813 56.5786 76.5215 56.296 76.5215 55.9429V52.4111H78.2049C78.6257 52.4111 78.9764 52.3405 79.3271 52.1286C79.6778 51.9167 79.9583 51.7048 80.1688 51.3516C80.3792 50.9984 80.5195 50.6452 80.5195 50.2214C80.5195 49.7976 80.4493 49.4444 80.309 49.0913L76.6618 40.827C78.0646 39.2024 78.766 37.0833 78.766 34.8937C78.766 31.0794 77.7139 27.3357 75.75 24.0865C73.7861 20.8373 70.9104 18.2238 67.4736 16.5286L64.3875 14.8333C64.107 14.6921 63.8264 14.6921 63.616 14.7627C63.3354 14.8333 63.125 14.9746 62.9146 15.1865L62.4236 15.8929H54.4979V13.5619C54.4979 13.2794 54.3576 12.9262 54.1472 12.7143C53.9368 12.5024 53.6563 12.3611 53.3056 12.3611H41.6625C41.382 12.3611 41.0313 12.5024 40.8208 12.7143C40.6104 12.9262 40.4701 13.2087 40.4701 13.5619V18.2944H38.7167C38.4361 18.2944 38.1556 18.3651 37.9451 18.577C37.7347 18.7889 37.5945 19.0008 37.5243 19.2833L36.7528 24.0159C36.4722 24.1571 36.2618 24.2984 35.9813 24.4397L31.4924 22.7444C31.2118 22.6738 30.9313 22.6738 30.7208 22.7444C30.4403 22.8151 30.2299 23.027 30.0896 23.2389C29.2479 24.7222 28.4063 26.2056 27.6347 27.6183ZM42.8549 14.6921H52.1833V17.023C52.1833 17.3056 52.3236 17.6587 52.534 17.8706C52.7445 18.0825 53.025 18.2238 53.3757 18.2238H60.8104L57.0229 23.4508C56.8826 23.6627 56.8125 23.8746 56.8125 24.1571C56.8125 24.9341 56.9528 25.7111 56.9528 26.4881V31.2206C56.9528 31.9976 56.9528 32.7746 56.9528 33.5516L56.8125 38.2841C58.0049 39.9794 59.2674 41.6746 60.4597 43.3698V46.7603C58.7764 47.4667 57.0229 48.2437 55.3396 48.95C55.1292 49.0206 54.9188 49.1619 54.7785 49.3738C54.6382 49.5857 54.5681 49.7976 54.5681 50.0095V52.3405H41.6625V46.4778H43.416C43.6965 46.4778 43.9771 46.4071 44.1875 46.1952C44.3979 45.9833 44.5382 45.7714 44.6083 45.4889L45.3799 40.6857C45.6604 40.5444 45.8708 40.4032 46.1514 40.2619L50.6403 41.9571C50.9208 42.0278 51.2014 42.0278 51.4118 41.9571C51.6924 41.8865 51.9028 41.6746 52.0431 41.4627C52.8146 40.1206 53.5861 38.7786 54.3576 37.3659C54.4979 37.154 54.5681 36.8714 54.4979 36.5889C54.4278 36.3064 54.2875 36.0944 54.0771 35.8825L51.2715 33.5516C51.2715 32.7746 51.2715 31.9976 51.2715 31.2206L54.0771 28.8897C54.2875 28.6778 54.4278 28.4659 54.4979 28.1833C54.5681 27.9008 54.4979 27.6183 54.3576 27.4064C53.5861 26.0643 52.8146 24.7222 52.0431 23.3095C51.9028 23.0976 51.6924 22.8857 51.4118 22.8151C51.1313 22.7444 50.8507 22.7444 50.6403 22.8151L46.1514 24.5103C45.8708 24.3691 45.6604 24.2278 45.3799 24.0865L44.6083 19.2833C44.5382 19.0008 44.3979 18.7889 44.1875 18.577C43.9771 18.3651 43.1354 18.2944 42.8549 18.2944V14.6921ZM38.9972 39.7675C38.9972 39.5556 38.857 39.4143 38.7868 39.2024C38.6465 39.0611 38.5063 38.9198 38.2958 38.8492C37.8049 38.6373 37.3139 38.3548 36.8931 38.0016C36.7528 37.8603 36.5424 37.7897 36.332 37.7897C36.1215 37.7897 35.9111 37.7897 35.7708 37.8603L31.6326 39.4143L30.3 37.0833L33.7368 34.2579L33.807 34.1873L33.8771 34.1167C33.9472 34.046 34.0174 33.9048 34.0875 33.7635C34.1576 33.6222 34.1576 33.481 34.1576 33.3397C34.1576 33.3397 34.1576 33.3397 34.1576 33.269C34.1576 33.269 34.1576 33.2691 34.1576 33.1984V33.1278C34.0875 32.5627 34.0875 31.9976 34.1576 31.5032C34.1576 31.2913 34.1576 31.0794 34.0875 30.9381C34.0174 30.7262 33.8771 30.5849 33.7368 30.4437L30.3 27.6183L31.6326 25.2873L35.7708 26.8413C35.9813 26.9119 36.1215 26.9119 36.332 26.9119C36.5424 26.9119 36.6826 26.8413 36.8931 26.7C37.3139 26.3468 37.8049 26.0643 38.2958 25.8524C38.5063 25.7817 38.6465 25.6405 38.7868 25.4992C38.9271 25.3579 38.9972 25.146 38.9972 24.9341L39.6986 20.5548H42.3639L43.0653 24.9341C43.0653 25.146 43.2056 25.2873 43.2757 25.4992C43.416 25.6405 43.5563 25.7817 43.7667 25.8524C44.2576 26.0643 44.7486 26.3468 45.1695 26.7C45.3097 26.8413 45.5201 26.9119 45.7306 26.9119C45.941 26.9119 46.1514 26.9119 46.2917 26.8413L50.4299 25.2873L51.7625 27.6183L48.3257 30.4437C48.1854 30.5849 48.0451 30.7262 47.975 30.9381C47.9049 31.15 47.9049 31.2913 47.9049 31.5032C47.975 32.0683 47.975 32.6333 47.9049 33.1278C47.9049 33.3397 47.9049 33.5516 47.975 33.6929C48.0451 33.9048 48.1854 34.046 48.3257 34.1873L51.7625 37.0127L50.5 39.4143L46.3618 37.8603C46.1514 37.7897 46.0111 37.7897 45.8007 37.7897C45.5903 37.7897 45.45 37.8603 45.2396 38.0016C44.8188 38.3548 44.3278 38.6373 43.8368 38.8492C43.6264 38.9198 43.4861 39.0611 43.3458 39.2024C43.2056 39.3437 43.1354 39.5556 43.1354 39.7675L42.434 44.1468H39.7688L38.9972 39.7675ZM53.3757 66.3968C53.3757 68.5865 53.3757 71.3413 53.3757 73.531C53.3757 73.8135 53.516 74.1667 53.7264 74.3786L59.8986 80.5944C53.0951 80.5944 46.3618 80.5944 39.5583 80.5944C38.5063 80.5944 37.5243 80.5944 36.4722 80.5944H28.1257L36.6125 72.0476C36.8229 71.8357 36.9632 71.5532 36.9632 71.2V54.7421C42.7847 54.7421 48.6764 54.7421 54.4979 54.7421V59.4746C54.4979 59.6865 54.5681 59.8984 54.6382 60.0397C54.7083 60.181 54.8486 60.3929 55.059 60.4635C55.4799 60.746 55.9007 60.9579 56.3215 61.2405C55.3396 63.0063 54.3576 64.5603 53.3757 66.3968ZM75.5396 50.0095C75.259 50.0095 74.9083 50.1508 74.6979 50.3627C74.4875 50.5746 74.3472 50.8571 74.3472 51.2103V54.7421H74.1368C73.225 54.7421 72.3833 54.6008 71.5417 54.2476C70.7 53.8945 69.9986 53.4 69.3674 52.7643C69.157 52.5524 68.8764 52.4111 68.5257 52.4111C68.2451 52.4111 67.8945 52.5524 67.684 52.7643C67.4736 52.9762 67.3333 53.2587 67.3333 53.6119C67.3333 53.8944 67.4736 54.2476 67.684 54.4595C69.0868 55.8722 70.8403 56.7905 72.8042 57.073L72.3833 57.4968C72.1729 57.7087 72.0326 57.9913 72.0326 58.3444V64.2071H66.2813C63.616 62.8651 61.0208 61.4524 58.4958 59.8278C57.9347 59.4746 57.3736 59.1214 56.8826 58.8389V50.7865L62.0028 48.7381C62.2132 48.6675 62.4236 48.5262 62.5639 48.3143C62.7042 48.1024 62.7743 47.8905 62.7743 47.6786V42.946C62.7743 42.6635 62.7042 42.4516 62.5639 42.2397L59.2674 37.8603V24.5103L64.3174 17.3762L66.8424 18.6476C69.8583 20.131 72.3833 22.4619 74.1368 25.3579C75.8903 28.254 76.8021 31.5738 76.8021 34.9643C76.8021 35.8825 76.6618 36.7302 76.3111 37.5778C75.9604 38.4254 75.4694 39.1317 74.8382 39.7675C74.6979 39.9087 74.5576 40.1206 74.4875 40.4032C74.4174 40.6151 74.4875 40.8976 74.5576 41.1095L78.4854 50.0802H75.5396V50.0095Z" fill="#FFFBFE"/>
</g>
<defs>
<clipPath id="clip0_627_1216">
<rect width="101" height="89" fill="white"/>
</clipPath>
</defs>
</svg>
