<svg width="102" height="89" viewBox="0 0 102 89" fill="none" xmlns="http://www.w3.org/2000/svg">
<g clip-path="url(#clip0_627_1229)">
<mask id="mask0_627_1229" style="mask-type:luminance" maskUnits="userSpaceOnUse" x="0" y="0" width="102" height="89">
<path d="M101.714 0H0V89H101.714V0Z" fill="white"/>
</mask>
<g mask="url(#mask0_627_1229)">
<path d="M23.7333 11.4429C24.581 11.4429 25.2873 10.7365 25.2873 9.88889C25.2873 9.04127 24.581 8.33492 23.7333 8.33492C22.8857 8.33492 22.1087 9.04127 22.1087 9.88889C22.1794 10.7365 22.8857 11.4429 23.7333 11.4429Z" fill="#FFFBFE"/>
<path d="M17.4468 11.4429C18.2944 11.4429 19.0008 10.7365 19.0008 9.88889C19.0008 9.04127 18.2944 8.33492 17.4468 8.33492C16.5992 8.33492 15.8929 9.04127 15.8929 9.88889C15.8222 10.7365 16.5286 11.4429 17.4468 11.4429Z" fill="#FFFBFE"/>
<path d="M11.1603 11.4429C12.0079 11.4429 12.7143 10.7365 12.7143 9.88889C12.7143 9.04127 12.0079 8.33492 11.1603 8.33492C10.3127 8.33492 9.60635 9.04127 9.60635 9.88889C9.53571 10.7365 10.2421 11.4429 11.1603 11.4429Z" fill="#FFFBFE"/>
<path d="M89.7063 0.706352H5.65079C4.30873 0.706352 3.10794 1.2008 2.18968 2.11905C1.27143 3.0373 0.706348 4.2381 0.706348 5.58016V83.4198C0.706348 84.6913 1.27143 85.9627 2.18968 86.881C3.10794 87.7992 4.30873 88.2937 5.65079 88.2937H89.7063C90.9778 88.2937 92.2492 87.7992 93.1675 86.881C94.0857 85.9627 94.6508 84.7619 94.6508 83.4198V55.3778C94.6508 55.1659 94.5802 54.8833 94.3683 54.7421C94.0151 54.3889 93.45 54.3889 93.0968 54.7421C92.9556 54.8833 92.8143 55.1659 92.8143 55.3778V83.4198C92.8143 84.2675 92.4611 85.0444 91.8254 85.6095C91.1897 86.1746 90.4127 86.5278 89.5651 86.4571H5.65079C4.80317 86.4571 4.02619 86.1746 3.46111 85.6095C2.8254 85.0444 2.54286 84.2675 2.47222 83.4198V18.2944H92.8849V24.581C92.8849 24.7929 92.9555 25.0754 93.1675 25.2167C93.5206 25.5698 94.0857 25.5698 94.4389 25.2167C94.5802 25.0754 94.7214 24.7929 94.7214 24.581V5.50953C94.7214 4.2381 94.1563 2.96667 93.2381 2.04842C92.2492 1.2008 91.0484 0.706352 89.7063 0.706352ZM92.8849 16.5992H2.47222V5.58016C2.47222 4.73254 2.8254 3.95556 3.46111 3.39048C4.09682 2.8254 4.87381 2.54286 5.65079 2.54286H89.7063C90.554 2.54286 91.331 2.8254 91.896 3.39048C92.5317 3.95556 92.8143 4.73254 92.8849 5.58016V16.5992Z" fill="#FFFBFE"/>
<path d="M11.1603 66.0437H46.1246C46.3365 66.0437 46.619 65.973 46.7603 65.7611C46.9016 65.5492 47.0429 65.3373 47.0429 65.1254C47.0429 64.9135 46.9722 64.631 46.7603 64.4897C46.5484 64.3484 46.3365 64.2778 46.054 64.2778H11.1603C10.9484 64.2778 10.6659 64.3484 10.5246 64.5603C10.3833 64.7722 10.2421 64.9841 10.2421 65.196C10.2421 65.4079 10.3127 65.6905 10.5246 65.8318C10.7365 65.973 10.8778 66.0437 11.1603 66.0437Z" fill="#FFFBFE"/>
<path d="M11.1603 75.5794H46.1246C46.3365 75.5794 46.619 75.5087 46.7603 75.2968C46.9016 75.0849 47.0429 74.873 47.0429 74.6611C47.0429 74.4492 46.9722 74.2373 46.7603 74.0254C46.619 73.8841 46.3365 73.7429 46.1246 73.7429H11.1603C10.9484 73.7429 10.6659 73.8135 10.5246 74.0254C10.3833 74.1667 10.2421 74.3786 10.2421 74.6611C10.2421 74.873 10.3127 75.1556 10.5246 75.2968C10.7365 75.4381 10.8778 75.5794 11.1603 75.5794Z" fill="#FFFBFE"/>
<path d="M55.6603 31.0794H74.7317C74.9437 31.0794 75.2262 31.0087 75.3675 30.7968C75.5087 30.5849 75.65 30.373 75.65 30.1611C75.65 29.9492 75.5794 29.7373 75.3675 29.5254C75.2262 29.3841 75.0143 29.2429 74.7317 29.2429H55.6603C55.4484 29.2429 55.2365 29.3135 55.0246 29.5254C54.8833 29.6667 54.7421 29.9492 54.7421 30.1611C54.7421 30.373 54.8127 30.6556 55.0246 30.7968C55.2365 30.9381 55.3778 31.0794 55.6603 31.0794Z" fill="#FFFBFE"/>
<path d="M55.6603 40.6151H68.3746C68.5865 40.6151 68.869 40.5445 69.0103 40.3325C69.1516 40.1206 69.2929 39.9087 69.2929 39.6968C69.2929 39.4849 69.2222 39.273 69.0103 39.0611C68.869 38.9198 68.6571 38.7786 68.3746 38.7786H55.6603C55.4484 38.7786 55.2365 38.8492 55.0246 39.0611C54.8833 39.2024 54.7421 39.4849 54.7421 39.6968C54.7421 39.9087 54.8127 40.1913 55.0246 40.3325C55.2365 40.4738 55.3778 40.6151 55.6603 40.6151Z" fill="#FFFBFE"/>
<path d="M91.1897 29.5254C91.1191 29.4548 90.9778 29.3841 90.9071 29.3135C90.8365 29.2429 90.6952 29.2429 90.554 29.2429C90.4127 29.2429 90.3421 29.2429 90.2008 29.3135C90.1302 29.3841 89.9889 29.4548 89.9183 29.5254L58.627 60.8167C58.5564 60.9579 58.4151 61.0286 58.4151 61.1698L54.7421 74.3786C54.6714 74.5198 54.6714 74.6611 54.7421 74.873C54.8127 75.0849 54.8833 75.1556 54.954 75.2968C55.0952 75.4381 55.2365 75.5087 55.3778 75.5087C55.5191 75.5794 55.6603 75.5794 55.8722 75.5087L69.081 71.8357C69.2222 71.7651 69.3635 71.6944 69.5048 71.6238L100.796 40.3325C100.867 40.2619 100.937 40.1206 101.008 40.05C101.079 39.9794 101.079 39.8381 101.079 39.6968C101.079 39.5556 101.079 39.4849 101.008 39.3437C100.937 39.2024 100.867 39.1317 100.796 39.0611L91.1897 29.5254ZM56.8611 73.3897L58.5564 67.1738L63.077 71.6944L56.8611 73.3897ZM68.3746 70.2111L65.0548 71.2L59.1214 65.2667L60.1103 61.9468L84.2675 37.7897L92.5318 46.1246L68.3746 70.2111ZM93.7325 44.7825L85.4683 36.5183L90.6246 31.4325L98.8889 39.7675L93.7325 44.7825Z" fill="#FFFBFE"/>
<path d="M46.9016 55.8016L46.9722 55.6603V55.5897V30.1611C46.9722 30.0905 46.9722 30.0905 46.9722 30.0199V29.9492V29.8786C46.9016 29.8079 46.9016 29.7373 46.9016 29.7373L46.619 29.5254L46.4071 29.4548H10.8071L10.5246 29.6667L10.3833 29.8079C10.3833 29.8786 10.3833 29.8786 10.3127 29.8786C10.3127 29.9492 10.3127 30.0199 10.2421 30.0199V30.1611L10.1714 30.3024C10.1714 30.3024 10.1714 30.3024 10.1714 30.373V55.731C10.1714 55.8016 10.1714 55.8722 10.1714 55.8722V55.9429V56.0135C10.1714 56.0841 10.2421 56.1548 10.2421 56.1548L10.3127 56.2254L10.3833 56.296L10.6659 56.4373H10.7365L10.8778 56.5079C10.9484 56.5079 11.019 56.5786 11.0897 56.5786H45.9833C46.054 56.5786 46.1246 56.5786 46.1952 56.5786L46.4071 56.5079L46.619 56.3667C46.619 56.3667 46.619 56.3667 46.6897 56.296L46.7603 56.2254C46.7603 56.2254 46.7603 56.1548 46.831 56.1548C46.831 56.0841 46.831 56.0135 46.9016 56.0135V55.8016ZM43.3698 31.0794L28.6071 41.8159L13.8444 31.0794H43.3698ZM12.0079 31.927L27.1238 42.8754L12.0079 53.8945V31.927ZM13.8444 54.7421L28.6071 44.0056L43.3698 54.7421H13.8444ZM45.2063 53.8945L30.0905 42.946L45.2063 31.927V53.8945Z" fill="#FFFBFE"/>
</g>
</g>
<defs>
<clipPath id="clip0_627_1229">
<rect width="102" height="89" fill="white"/>
</clipPath>
</defs>
</svg>
