<svg width="102" height="89" viewBox="0 0 102 89" fill="none" xmlns="http://www.w3.org/2000/svg">
<mask id="mask0_104_4532" style="mask-type:luminance" maskUnits="userSpaceOnUse" x="0" y="0" width="102" height="89">
<path d="M101.714 0H0V89H101.714V0Z" fill="white"/>
</mask>
<g mask="url(#mask0_104_4532)">
<path d="M23.7335 11.4429C24.5811 11.4429 25.2875 10.7365 25.2875 9.88893C25.2875 9.04131 24.5811 8.33496 23.7335 8.33496C22.8859 8.33496 22.1089 9.04131 22.1089 9.88893C22.1795 10.7365 22.8859 11.4429 23.7335 11.4429Z" fill="#2B2B2B"/>
<path d="M17.447 11.4429C18.2946 11.4429 19.001 10.7365 19.001 9.88893C19.001 9.04131 18.2946 8.33496 17.447 8.33496C16.5994 8.33496 15.8931 9.04131 15.8931 9.88893C15.8224 10.7365 16.5288 11.4429 17.447 11.4429Z" fill="#2B2B2B"/>
<path d="M11.1604 11.4429C12.008 11.4429 12.7144 10.7365 12.7144 9.88893C12.7144 9.04131 12.008 8.33496 11.1604 8.33496C10.3128 8.33496 9.60643 9.04131 9.60643 9.88893C9.5358 10.7365 10.2421 11.4429 11.1604 11.4429Z" fill="#2B2B2B"/>
<path d="M89.7065 0.706299H5.65099C4.30892 0.706299 3.10813 1.20074 2.18988 2.119C1.27162 3.03725 0.706543 4.23804 0.706543 5.58011V83.4198C0.706543 84.6912 1.27162 85.9626 2.18988 86.8809C3.10813 87.7992 4.30892 88.2936 5.65099 88.2936H89.7065C90.978 88.2936 92.2494 87.7992 93.1676 86.8809C94.0859 85.9626 94.651 84.7618 94.651 83.4198V55.3777C94.651 55.1658 94.5804 54.8833 94.3685 54.742C94.0153 54.3888 93.4502 54.3888 93.097 54.742C92.9557 54.8833 92.8145 55.1658 92.8145 55.3777V83.4198C92.8145 84.2674 92.4613 85.0444 91.8256 85.6095C91.1899 86.1746 90.4129 86.5277 89.5653 86.4571H5.65099C4.80337 86.4571 4.02638 86.1746 3.4613 85.6095C2.82559 85.0444 2.54305 84.2674 2.47242 83.4198V18.2944H92.8851V24.5809C92.8851 24.7928 92.9557 25.0753 93.1676 25.2166C93.5208 25.5698 94.0859 25.5698 94.4391 25.2166C94.5803 25.0753 94.7216 24.7928 94.7216 24.5809V5.50947C94.7216 4.23804 94.1565 2.96662 93.2383 2.04836C92.2494 1.20074 91.0486 0.706299 89.7065 0.706299ZM92.8851 16.5992H2.47242V5.58011C2.47242 4.73249 2.82559 3.95551 3.4613 3.39043C4.09702 2.82535 4.874 2.54281 5.65099 2.54281H89.7065C90.5542 2.54281 91.3311 2.82535 91.8962 3.39043C92.5319 3.95551 92.8145 4.73249 92.8851 5.58011V16.5992Z" fill="#2B2B2B"/>
<path d="M11.1604 66.0437H46.1247C46.3366 66.0437 46.6192 65.9731 46.7604 65.7612C46.9017 65.5493 47.043 65.3374 47.043 65.1254C47.043 64.9135 46.9723 64.631 46.7604 64.4897C46.5485 64.3485 46.3366 64.2778 46.0541 64.2778H11.1604C10.9485 64.2778 10.666 64.3485 10.5247 64.5604C10.3835 64.7723 10.2422 64.9842 10.2422 65.1961C10.2422 65.408 10.3128 65.6905 10.5247 65.8318C10.7366 65.9731 10.8779 66.0437 11.1604 66.0437Z" fill="#2B2B2B"/>
<path d="M11.1604 75.5794H46.1247C46.3366 75.5794 46.6192 75.5088 46.7604 75.2969C46.9017 75.085 47.043 74.8731 47.043 74.6612C47.043 74.4493 46.9723 74.2374 46.7604 74.0255C46.6192 73.8842 46.3366 73.7429 46.1247 73.7429H11.1604C10.9485 73.7429 10.666 73.8136 10.5247 74.0255C10.3835 74.1667 10.2422 74.3786 10.2422 74.6612C10.2422 74.8731 10.3128 75.1556 10.5247 75.2969C10.7366 75.4382 10.8779 75.5794 11.1604 75.5794Z" fill="#2B2B2B"/>
<path d="M55.6604 31.0794H74.7319C74.9438 31.0794 75.2263 31.0088 75.3676 30.7969C75.5089 30.585 75.6501 30.3731 75.6501 30.1612C75.6501 29.9493 75.5795 29.7374 75.3676 29.5255C75.2263 29.3842 75.0144 29.2429 74.7319 29.2429H55.6604C55.4485 29.2429 55.2366 29.3136 55.0247 29.5255C54.8835 29.6667 54.7422 29.9493 54.7422 30.1612C54.7422 30.3731 54.8128 30.6556 55.0247 30.7969C55.2366 30.9382 55.3779 31.0794 55.6604 31.0794Z" fill="#2B2B2B"/>
<path d="M55.6604 40.6151H68.3747C68.5866 40.6151 68.8692 40.5444 69.0104 40.3325C69.1517 40.1206 69.293 39.9087 69.293 39.6968C69.293 39.4849 69.2223 39.273 69.0104 39.0611C68.8692 38.9198 68.6573 38.7786 68.3747 38.7786H55.6604C55.4485 38.7786 55.2366 38.8492 55.0247 39.0611C54.8835 39.2024 54.7422 39.4849 54.7422 39.6968C54.7422 39.9087 54.8128 40.1913 55.0247 40.3325C55.2366 40.4738 55.3779 40.6151 55.6604 40.6151Z" fill="#2B2B2B"/>
<path d="M91.1901 29.5255C91.1194 29.4548 90.9781 29.3842 90.9075 29.3136C90.8369 29.2429 90.6956 29.2429 90.5543 29.2429C90.4131 29.2429 90.3424 29.2429 90.2012 29.3136C90.1305 29.3842 89.9893 29.4548 89.9186 29.5255L58.6274 60.8167C58.5567 60.958 58.4154 61.0286 58.4154 61.1699L54.7424 74.3786C54.6718 74.5199 54.6718 74.6612 54.7424 74.8731C54.8131 75.085 54.8837 75.1556 54.9543 75.2969C55.0956 75.4382 55.2369 75.5088 55.3781 75.5088C55.5194 75.5794 55.6607 75.5794 55.8726 75.5088L69.0813 71.8358C69.2226 71.7651 69.3639 71.6945 69.5051 71.6239L100.796 40.3326C100.867 40.262 100.938 40.1207 101.008 40.0501C101.079 39.9794 101.079 39.8382 101.079 39.6969C101.079 39.5556 101.079 39.485 101.008 39.3437C100.938 39.2024 100.867 39.1318 100.796 39.0612L91.1901 29.5255ZM56.8615 73.3897L58.5567 67.1739L63.0774 71.6945L56.8615 73.3897ZM68.375 70.2112L65.0551 71.2001L59.1218 65.2667L60.1107 61.9469L84.2678 37.7897L92.5321 46.1247L68.375 70.2112ZM93.7329 44.7826L85.4686 36.5183L90.625 31.4326L98.8893 39.7675L93.7329 44.7826Z" fill="#2B2B2B"/>
<path d="M46.9015 55.8014L46.9722 55.6601V55.5895V30.1609C46.9722 30.0903 46.9722 30.0903 46.9722 30.0197V29.949V29.8784C46.9015 29.8078 46.9015 29.7371 46.9015 29.7371L46.619 29.5252L46.4071 29.4546H10.8071L10.5246 29.6665L10.3833 29.8078C10.3833 29.8784 10.3833 29.8784 10.3127 29.8784C10.3127 29.949 10.3127 30.0197 10.242 30.0197V30.1609L10.1714 30.3022C10.1714 30.3022 10.1714 30.3022 10.1714 30.3728V55.7308C10.1714 55.8014 10.1714 55.872 10.1714 55.872V55.9427V56.0133C10.1714 56.084 10.242 56.1546 10.242 56.1546L10.3127 56.2252L10.3833 56.2959L10.6658 56.4371H10.7365L10.8777 56.5078C10.9484 56.5078 11.019 56.5784 11.0896 56.5784H45.9833C46.0539 56.5784 46.1246 56.5784 46.1952 56.5784L46.4071 56.5078L46.619 56.3665C46.619 56.3665 46.619 56.3665 46.6896 56.2959L46.7603 56.2252C46.7603 56.2252 46.7603 56.1546 46.8309 56.1546C46.8309 56.084 46.8309 56.0133 46.9015 56.0133V55.8014ZM43.3698 31.0792L28.6071 41.8157L13.8444 31.0792H43.3698ZM12.0079 31.9268L27.1238 42.8752L12.0079 53.8943V31.9268ZM13.8444 54.7419L28.6071 44.0054L43.3698 54.7419H13.8444ZM45.2063 53.8943L30.0904 42.9459L45.2063 31.9268V53.8943Z" fill="#2B2B2B"/>
</g>
</svg>
