<svg width="124" height="89" viewBox="0 0 124 89" fill="none" xmlns="http://www.w3.org/2000/svg">
<g clip-path="url(#clip0_627_1245)">
<mask id="mask0_627_1245" style="mask-type:luminance" maskUnits="userSpaceOnUse" x="0" y="0" width="125" height="89">
<path d="M124.317 0H0V89H124.317V0Z" fill="white"/>
</mask>
<g mask="url(#mask0_627_1245)">
<path d="M21.1198 9.88889C21.8968 9.88889 22.5325 9.25317 22.5325 8.47619C22.5325 7.69921 21.8968 7.06349 21.1198 7.06349C20.3428 7.06349 19.7071 7.69921 19.7071 8.47619C19.7071 9.25317 20.3428 9.88889 21.1198 9.88889Z" fill="#FFFBFE"/>
<path d="M15.469 9.88889C16.246 9.88889 16.8817 9.25317 16.8817 8.47619C16.8817 7.69921 16.246 7.06349 15.469 7.06349C14.692 7.06349 14.0563 7.69921 14.0563 8.47619C14.0563 9.25317 14.692 9.88889 15.469 9.88889Z" fill="#FFFBFE"/>
<path d="M9.88889 9.88889C10.6659 9.88889 11.3016 9.25317 11.3016 8.47619C11.3016 7.69921 10.6659 7.06349 9.88889 7.06349C9.11191 7.06349 8.4762 7.69921 8.4762 8.47619C8.4762 9.25317 9.11191 9.88889 9.88889 9.88889Z" fill="#FFFBFE"/>
<path d="M15.8929 36.5889H30.1611V38.9905H15.8929V36.5889ZM16.246 49.0913H32.4921V51.5635H13.35V24.5103H31.927V26.9825H16.246V49.0913Z" fill="#FFFBFE"/>
<path d="M0.776978 5.65079V56.0135C0.776978 57.4968 1.34206 58.9095 2.40158 59.969C3.4611 61.0286 4.8738 61.5936 6.35714 61.5936H34.7524V59.3333H6.35714C5.43888 59.3333 4.6619 58.9802 4.02618 58.3444C3.39047 57.7087 3.0373 56.8611 3.0373 56.0135V16.8111H82.3603V21.8968H84.6206V5.65079C84.6206 4.16746 84.0555 2.75476 82.996 1.69524C81.9365 0.635712 80.5238 0.0706329 79.0405 0.0706329H6.2865C4.80317 0.0706329 3.39047 0.635712 2.33095 1.69524C1.34206 2.75476 0.776978 4.16746 0.776978 5.65079ZM3.0373 5.65079C3.0373 5.22698 3.10793 4.80317 3.2492 4.37936C3.39047 3.95555 3.67301 3.60238 3.95555 3.31984C4.23809 3.0373 4.6619 2.75476 5.01507 2.61349C5.43888 2.40159 5.86269 2.33095 6.35714 2.33095H79.0405C79.9587 2.33095 80.7357 2.68412 81.3714 3.31984C82.0071 3.95555 82.3603 4.80317 82.3603 5.65079V14.5508H3.0373V5.65079Z" fill="#FFFBFE"/>
<path d="M41.4627 28.6778C40.4032 29.7373 39.8381 31.15 39.8381 32.6333V82.996C39.8381 84.4794 40.4032 85.8921 41.4627 86.9516C42.5222 88.0111 43.9349 88.5762 45.4182 88.5762H118.102C119.585 88.5762 120.998 88.0111 122.057 86.9516C123.117 85.8921 123.682 84.4794 123.682 82.996V32.5627C123.682 31.8564 123.54 31.0794 123.258 30.4437C122.975 29.7373 122.552 29.1722 122.057 28.6071C121.563 28.1127 120.927 27.6889 120.221 27.4064C119.514 27.1238 118.808 26.9825 118.102 26.9825H45.3476C43.8643 26.9825 42.4516 27.6183 41.4627 28.6778ZM121.351 82.996C121.351 83.9143 120.998 84.6913 120.362 85.327C119.726 85.9627 118.879 86.3159 118.031 86.3159H45.3476C44.4293 86.3159 43.6524 85.9627 43.0166 85.327C42.3809 84.6913 42.0278 83.8437 42.0278 82.996V43.7937H121.351V82.996ZM120.362 30.2317C120.998 30.8675 121.351 31.7151 121.351 32.5627V41.4627H42.0278V32.5627C42.0278 31.6444 42.3809 30.8675 43.0166 30.2317C43.6524 29.596 44.4293 29.2429 45.3476 29.2429H118.031C118.879 29.2429 119.726 29.596 120.362 30.2317Z" fill="#FFFBFE"/>
<path d="M59.969 36.7302C60.746 36.7302 61.3817 36.0944 61.3817 35.3175C61.3817 34.5405 60.746 33.9048 59.969 33.9048C59.192 33.9048 58.5563 34.5405 58.5563 35.3175C58.5563 36.0944 59.192 36.7302 59.969 36.7302Z" fill="#FFFBFE"/>
<path d="M54.3182 36.7302C55.0952 36.7302 55.7309 36.0944 55.7309 35.3175C55.7309 34.5405 55.0952 33.9048 54.3182 33.9048C53.5413 33.9048 52.9055 34.5405 52.9055 35.3175C52.9055 36.0944 53.5413 36.7302 54.3182 36.7302Z" fill="#FFFBFE"/>
<path d="M48.7381 36.7302C49.5151 36.7302 50.1508 36.0944 50.1508 35.3175C50.1508 34.5405 49.5151 33.9048 48.7381 33.9048C47.9611 33.9048 47.3254 34.5405 47.3254 35.3175C47.3254 36.0944 47.9611 36.7302 48.7381 36.7302Z" fill="#FFFBFE"/>
<path d="M84.9738 83.2786C83.7024 83.2786 82.3603 83.1373 81.0182 82.7841C79.6762 82.5016 78.3341 82.0071 77.204 81.2302C76.0032 80.5238 75.0143 79.5349 74.3079 78.3341C73.6016 77.1333 73.1778 75.5794 73.1778 73.7429C73.1778 72.0476 73.5309 70.423 74.2373 68.9397C74.9436 67.4564 75.9325 66.1143 77.1333 64.9135C78.4047 63.7127 79.8881 62.6532 81.654 61.8762C83.4198 61.0992 85.327 60.4635 87.3754 60.1103L88.1524 62.8651C86.3865 63.1476 84.8325 63.6421 83.3492 64.2778C81.8659 64.9135 80.5944 65.6198 79.5349 66.5381C78.4754 67.3857 77.6278 68.4452 77.0627 69.5754C76.4976 70.7056 76.1444 71.977 76.1444 73.3897C76.1444 74.5198 76.3563 75.4381 76.7095 76.2857C77.0627 77.0627 77.5571 77.7691 78.1928 78.2635C78.8286 78.8286 79.5349 79.2524 80.3119 79.5349C81.0889 79.8175 81.8659 80.0294 82.7135 80.1706C83.5611 80.3119 84.3381 80.3825 85.0444 80.3825C86.3159 80.3825 87.5873 80.2413 88.8587 80.0294C90.1301 79.8175 91.3309 79.4643 92.3905 79.0405L93.3087 81.5127C92.7436 81.7952 91.9667 82.0778 91.0484 82.3603C90.1301 82.6429 89.1413 82.8548 88.0817 83.0667C86.9516 83.1373 85.9627 83.2786 84.9738 83.2786ZM79.1111 64.3484C78.1928 64.1365 77.2746 63.7127 76.5682 63.077C75.7913 62.4413 75.2262 61.7349 74.7317 60.8873C74.3079 60.0397 74.096 59.1214 74.096 58.2032C74.096 56.7198 74.4492 55.4484 75.1555 54.4595C75.8619 53.4706 76.7801 52.6937 77.8397 52.1992C78.9698 51.7048 80.1 51.4222 81.3714 51.4222C81.9365 51.4222 82.5016 51.4929 83.1373 51.5635C83.773 51.6341 84.3381 51.7754 84.9032 51.9873L84.2675 54.7421C83.773 54.6008 83.2786 54.5302 82.7841 54.4595C82.2897 54.3889 81.7952 54.3183 81.3714 54.3183C80.5238 54.3183 79.7468 54.4595 79.1111 54.8127C78.4754 55.0952 77.9103 55.5191 77.5571 56.0841C77.204 56.5786 76.9921 57.2143 76.9921 57.9206C76.9921 58.5564 77.204 59.1214 77.5571 59.6865C77.9103 60.181 78.4048 60.6048 78.9698 61.0286C79.5349 61.3817 80.1 61.6643 80.7357 61.8762C81.3008 62.0175 81.8659 62.0881 82.2897 62.0881L79.1111 64.3484Z" fill="#FFFBFE"/>
</g>
</g>
<defs>
<clipPath id="clip0_627_1245">
<rect width="124" height="89" fill="white"/>
</clipPath>
</defs>
</svg>
