<svg width="124" height="89" viewBox="0 0 124 89" fill="none" xmlns="http://www.w3.org/2000/svg">
<g clip-path="url(#clip0_104_4554)">
<mask id="mask0_104_4554" style="mask-type:luminance" maskUnits="userSpaceOnUse" x="0" y="0" width="125" height="89">
<path d="M124.317 0H0V89H124.317V0Z" fill="white"/>
</mask>
<g mask="url(#mask0_104_4554)">
<path d="M21.1197 9.88887C21.8967 9.88887 22.5324 9.25316 22.5324 8.47617C22.5324 7.69919 21.8967 7.06348 21.1197 7.06348C20.3427 7.06348 19.707 7.69919 19.707 8.47617C19.707 9.25316 20.3427 9.88887 21.1197 9.88887Z" fill="#2B2B2B"/>
<path d="M15.4693 9.88887C16.2463 9.88887 16.882 9.25316 16.882 8.47617C16.882 7.69919 16.2463 7.06348 15.4693 7.06348C14.6924 7.06348 14.0566 7.69919 14.0566 8.47617C14.0566 9.25316 14.6924 9.88887 15.4693 9.88887Z" fill="#2B2B2B"/>
<path d="M9.88926 9.88887C10.6662 9.88887 11.302 9.25316 11.302 8.47617C11.302 7.69919 10.6662 7.06348 9.88926 7.06348C9.11228 7.06348 8.47656 7.69919 8.47656 8.47617C8.47656 9.25316 9.11228 9.88887 9.88926 9.88887Z" fill="#2B2B2B"/>
<path d="M15.8934 36.5888H30.1617V38.9904H15.8934V36.5888ZM16.2466 49.0912H32.4926V51.5634H13.3506V24.5103H31.9276V26.9825H16.2466V49.0912Z" fill="#2B2B2B"/>
<path d="M0.777344 5.65072V56.0134C0.777344 57.4967 1.34242 58.9094 2.40195 59.969C3.46147 61.0285 4.87417 61.5936 6.3575 61.5936H34.7527V59.3333H6.3575C5.43925 59.3333 4.66226 58.9801 4.02655 58.3444C3.39084 57.7087 3.03766 56.861 3.03766 56.0134V16.811H82.3607V21.8967H84.621V5.65072C84.621 4.16738 84.0559 2.75468 82.9964 1.69516C81.9369 0.635636 80.5242 0.0705566 79.0408 0.0705566H6.28687C4.80353 0.0705566 3.39084 0.635636 2.33131 1.69516C1.34242 2.75468 0.777344 4.16738 0.777344 5.65072ZM3.03766 5.65072C3.03766 5.22691 3.1083 4.8031 3.24957 4.37929C3.39084 3.95548 3.67338 3.6023 3.95592 3.31976C4.23845 3.03722 4.66226 2.75468 5.01544 2.61341C5.43925 2.40151 5.86306 2.33087 6.3575 2.33087H79.0408C79.9591 2.33087 80.7361 2.68405 81.3718 3.31976C82.0075 3.95548 82.3607 4.8031 82.3607 5.65072V14.5507H3.03766V5.65072Z" fill="#2B2B2B"/>
<path d="M41.4635 28.6777C40.4039 29.7372 39.8389 31.1499 39.8389 32.6332V82.9959C39.8389 84.4792 40.4039 85.8919 41.4635 86.9515C42.523 88.011 43.9357 88.5761 45.419 88.5761H118.102C119.586 88.5761 120.998 88.011 122.058 86.9515C123.117 85.8919 123.683 84.4792 123.683 82.9959V32.5626C123.683 31.8562 123.541 31.0792 123.259 30.4435C122.976 29.7372 122.552 29.1721 122.058 28.607C121.563 28.1126 120.928 27.6888 120.221 27.4062C119.515 27.1237 118.809 26.9824 118.102 26.9824H45.3484C43.8651 26.9824 42.4524 27.6181 41.4635 28.6777ZM121.352 82.9959C121.352 83.9142 120.998 84.6912 120.363 85.3269C119.727 85.9626 118.879 86.3158 118.032 86.3158H45.3484C44.4301 86.3158 43.6532 85.9626 43.0174 85.3269C42.3817 84.6912 42.0285 83.8435 42.0285 82.9959V43.7935H121.352V82.9959ZM120.363 30.2316C120.998 30.8673 121.352 31.715 121.352 32.5626V41.4626H42.0285V32.5626C42.0285 31.6443 42.3817 30.8673 43.0174 30.2316C43.6532 29.5959 44.4301 29.2427 45.3484 29.2427H118.032C118.879 29.2427 119.727 29.5959 120.363 30.2316Z" fill="#2B2B2B"/>
<path d="M59.9693 36.7302C60.7463 36.7302 61.382 36.0945 61.382 35.3175C61.382 34.5405 60.7463 33.9048 59.9693 33.9048C59.1924 33.9048 58.5566 34.5405 58.5566 35.3175C58.5566 36.0945 59.1924 36.7302 59.9693 36.7302Z" fill="#2B2B2B"/>
<path d="M54.3189 36.7302C55.0959 36.7302 55.7316 36.0945 55.7316 35.3175C55.7316 34.5405 55.0959 33.9048 54.3189 33.9048C53.542 33.9048 52.9062 34.5405 52.9062 35.3175C52.9062 36.0945 53.542 36.7302 54.3189 36.7302Z" fill="#2B2B2B"/>
<path d="M48.7389 36.7302C49.5159 36.7302 50.1516 36.0945 50.1516 35.3175C50.1516 34.5405 49.5159 33.9048 48.7389 33.9048C47.9619 33.9048 47.3262 34.5405 47.3262 35.3175C47.3262 36.0945 47.9619 36.7302 48.7389 36.7302Z" fill="#2B2B2B"/>
<path d="M84.9738 83.2785C83.7023 83.2785 82.3603 83.1372 81.0182 82.784C79.6761 82.5015 78.3341 82.007 77.2039 81.2301C76.0031 80.5237 75.0142 79.5348 74.3079 78.334C73.6015 77.1332 73.1777 75.5793 73.1777 73.7428C73.1777 72.0475 73.5309 70.4229 74.2373 68.9396C74.9436 67.4562 75.9325 66.1142 77.1333 64.9134C78.4047 63.7126 79.8881 62.6531 81.6539 61.8761C83.4198 61.0991 85.3269 60.4634 87.3754 60.1102L88.1523 62.865C86.3865 63.1475 84.8325 63.642 83.3492 64.2777C81.8658 64.9134 80.5944 65.6197 79.5349 66.538C78.4754 67.3856 77.6277 68.4451 77.0627 69.5753C76.4976 70.7055 76.1444 71.9769 76.1444 73.3896C76.1444 74.5197 76.3563 75.438 76.7095 76.2856C77.0627 77.0626 77.5571 77.7689 78.1928 78.2634C78.8285 78.8285 79.5349 79.2523 80.3119 79.5348C81.0888 79.8174 81.8658 80.0293 82.7134 80.1705C83.5611 80.3118 84.3381 80.3824 85.0444 80.3824C86.3158 80.3824 87.5873 80.2412 88.8587 80.0293C90.1301 79.8174 91.3309 79.4642 92.3904 79.0404L93.3087 81.5126C92.7436 81.7951 91.9666 82.0777 91.0484 82.3602C90.1301 82.6427 89.1412 82.8547 88.0817 83.0666C86.9515 83.1372 85.9627 83.2785 84.9738 83.2785ZM79.1111 64.3483C78.1928 64.1364 77.2746 63.7126 76.5682 63.0769C75.7912 62.4412 75.2262 61.7348 74.7317 60.8872C74.3079 60.0396 74.096 59.1213 74.096 58.2031C74.096 56.7197 74.4492 55.4483 75.1555 54.4594C75.8619 53.4705 76.7801 52.6935 77.8396 52.1991C78.9698 51.7047 80.1 51.4221 81.3714 51.4221C81.9365 51.4221 82.5015 51.4928 83.1373 51.5634C83.773 51.634 84.3381 51.7753 84.9031 51.9872L84.2674 54.742C83.773 54.6007 83.2785 54.5301 82.7841 54.4594C82.2896 54.3888 81.7952 54.3181 81.3714 54.3181C80.5238 54.3181 79.7468 54.4594 79.1111 54.8126C78.4754 55.0951 77.9103 55.5189 77.5571 56.084C77.2039 56.5785 76.992 57.2142 76.992 57.9205C76.992 58.5562 77.2039 59.1213 77.5571 59.6864C77.9103 60.1808 78.4047 60.6047 78.9698 61.0285C79.5349 61.3816 80.1 61.6642 80.7357 61.8761C81.3008 62.0174 81.8658 62.088 82.2896 62.088L79.1111 64.3483Z" fill="#2B2B2B"/>
</g>
</g>
<defs>
<clipPath id="clip0_104_4554">
<rect width="124" height="89" fill="white"/>
</clipPath>
</defs>
</svg>
