<svg width="101" height="89" viewBox="0 0 101 89" fill="none" xmlns="http://www.w3.org/2000/svg">
<g clip-path="url(#clip0_104_4577)">
<mask id="mask0_104_4577" style="mask-type:luminance" maskUnits="userSpaceOnUse" x="0" y="0" width="101" height="89">
<path d="M101 0H0V89H101V0Z" fill="white"/>
</mask>
<g mask="url(#mask0_104_4577)">
<path d="M23.5663 11.4429C24.408 11.4429 25.1094 10.7365 25.1094 9.88893C25.1094 9.04131 24.408 8.33496 23.5663 8.33496C22.7247 8.33496 21.9531 9.04131 21.9531 9.88893C22.0233 10.7365 22.7247 11.4429 23.5663 11.4429Z" fill="#2B2B2B"/>
<path d="M17.3243 11.4429C18.1659 11.4429 18.8673 10.7365 18.8673 9.88893C18.8673 9.04131 18.1659 8.33496 17.3243 8.33496C16.4826 8.33496 15.7812 9.04131 15.7812 9.88893C15.7111 10.7365 16.4125 11.4429 17.3243 11.4429Z" fill="#2B2B2B"/>
<path d="M11.0821 11.4429C11.9237 11.4429 12.6251 10.7365 12.6251 9.88893C12.6251 9.04131 11.9237 8.33496 11.0821 8.33496C10.2404 8.33496 9.53902 9.04131 9.53902 9.88893C9.46888 10.7365 10.1703 11.4429 11.0821 11.4429Z" fill="#2B2B2B"/>
<path d="M98.7553 2.119C97.7734 1.20074 96.4408 0.706299 95.1081 0.706299H5.96159C4.55881 0.706299 3.29631 1.20074 2.31437 2.119C1.26228 3.03725 0.701172 4.23804 0.701172 5.58011V83.4198C0.701172 84.6912 1.26228 85.9626 2.24423 86.8809C3.22617 87.7992 4.55881 88.2936 5.89145 88.2936H95.038C96.4408 88.2936 97.7033 87.7992 98.6852 86.8809C99.6671 85.9626 100.228 84.7618 100.228 83.4198V5.58011C100.298 4.23804 99.7373 3.03725 98.7553 2.119ZM98.4046 16.5992H77.4331V18.365H98.4046V83.4198C98.4046 84.2674 97.9838 85.0444 97.3526 85.6095C96.7213 86.1746 95.8796 86.5277 94.9678 86.4571H5.96159C5.04978 86.4571 4.27826 86.1746 3.57687 85.6095C2.94562 85.0444 2.59492 84.2674 2.52478 83.4198V18.2944H35.2796V16.5285H2.59492V5.58011C2.59492 4.73249 3.01576 3.95551 3.64701 3.39043C4.20812 2.75471 5.11992 2.47217 5.96159 2.47217H95.038C95.9498 2.47217 96.7213 2.75471 97.4227 3.31979C98.0539 3.88487 98.4046 4.66185 98.4748 5.50947V16.5992H98.4046Z" fill="#2B2B2B"/>
</g>
<path d="M66.7285 38.2842H70.2354C70.516 38.2842 70.8667 38.1429 71.0771 37.931C71.2875 37.7191 71.4278 37.4365 71.4278 37.0834V33.5516C71.4278 33.2691 71.2875 32.9159 71.0771 32.704C70.8667 32.4921 70.5861 32.3508 70.2354 32.3508C69.8847 32.3508 69.6042 32.4921 69.3938 32.704C69.1834 32.9159 69.0431 33.1984 69.0431 33.5516V35.8826H66.7285C66.4479 35.8826 66.0972 36.0238 65.8868 36.2358C65.6764 36.4477 65.5361 36.7302 65.5361 37.0834C65.5361 37.3659 65.6764 37.7191 65.8868 37.931C66.0972 38.1429 66.4479 38.2842 66.7285 38.2842Z" fill="#2B2B2B"/>
<path d="M41.0315 37.0833C41.9433 37.0833 42.8551 36.8007 43.6266 36.3063C44.3982 35.8119 45.0294 35.0349 45.3801 34.1873C45.7308 33.3396 45.801 32.3507 45.6607 31.4325C45.4503 30.5142 45.0294 29.6666 44.3982 29.0309C43.7669 28.3952 42.9253 27.9007 42.0135 27.7595C41.1016 27.5476 40.1898 27.6888 39.278 28.042C38.4364 28.3952 37.6648 29.0309 37.1739 29.8079C36.6829 30.5849 36.4023 31.5031 36.4023 32.4214C36.4023 33.6928 36.8933 34.8936 37.8051 35.7412C38.6468 36.5888 39.8391 37.0833 41.0315 37.0833ZM41.0315 30.0198C41.5225 30.0198 41.9433 30.1611 42.3641 30.4436C42.7148 30.7261 43.0655 31.0793 43.2058 31.5031C43.4162 31.9269 43.4162 32.4214 43.3461 32.8452C43.276 33.269 43.0655 33.6928 42.7148 34.046C42.3641 34.3992 41.9433 34.6111 41.5225 34.6817C41.1016 34.7523 40.6107 34.7523 40.1898 34.5404C39.769 34.3285 39.4183 34.046 39.1378 33.6928C38.8572 33.3396 38.7169 32.8452 38.7169 32.3507C38.7169 31.715 38.9975 31.15 39.4183 30.6555C39.8391 30.2317 40.4003 30.0198 41.0315 30.0198Z" fill="#2B2B2B"/>
<path d="M27.6345 27.6182C27.5643 27.8301 27.5643 28.042 27.6345 28.2539C27.7046 28.4658 27.8449 28.6777 27.9852 28.819L31.7025 31.927C31.7025 31.9976 31.7025 33.1984 31.7025 33.1984L27.9852 35.8825C27.7747 36.0944 27.6345 36.3063 27.5643 36.5889C27.4942 36.8714 27.5643 37.1539 27.7046 37.3658L29.8789 41.1801C30.0192 41.3214 30.44 41.6039 31.0011 41.7452C31.5622 41.8158 31.9831 41.7452 32.1935 41.6746L35.9108 40.2619C36.1914 40.4031 36.4018 40.5444 36.6824 40.6857L37.4539 45.4889C37.524 45.7714 37.6643 45.9833 37.8747 46.1952C38.0851 46.4071 38.3657 46.4778 38.6463 46.4778H39.2775V52.3404H35.7706C35.49 52.3404 35.1393 52.4817 34.9289 52.6936C34.7185 52.9055 34.5782 53.1881 34.5782 53.5412V70.7055L24.4081 80.9476C24.2678 81.0889 24.1275 81.3008 24.0574 81.5833C23.9872 81.7952 24.0574 82.0778 24.1275 82.2897C24.1977 82.5016 24.3379 82.7135 24.5483 82.7841C24.7588 82.9254 24.9692 82.996 25.1796 82.996H62.5636C62.774 82.996 63.0546 82.9254 63.1949 82.7841C63.4053 82.6428 63.5456 82.5016 63.6157 82.2897C63.6858 82.0778 63.756 81.8658 63.6858 81.5833C63.6157 81.3714 63.5456 81.1595 63.3351 80.9476L55.4796 73.0365V66.8206L58.0747 62.4412C62.4935 65.1254 65.1588 66.5381 66.0004 66.5381H73.0143C73.2949 66.5381 73.6456 66.3968 73.856 66.1849C74.0664 65.973 74.2067 65.6904 74.2067 65.3373V58.7682L76.1706 56.7905C76.381 56.5785 76.5213 56.296 76.5213 55.9428V52.4111H78.2046C78.6254 52.4111 78.9761 52.3405 79.3268 52.1285C79.6775 51.9166 79.9581 51.7047 80.1685 51.3516C80.3789 50.9984 80.5192 50.6452 80.5192 50.2214C80.5192 49.7976 80.449 49.4444 80.3088 49.0912L76.6615 40.827C78.0643 39.2024 78.7657 37.0833 78.7657 34.8936C78.7657 31.0793 77.7136 27.3357 75.7497 24.0865C73.7858 20.8373 70.9101 18.2238 67.4733 16.5285L64.3872 14.8333C64.1067 14.692 63.8261 14.692 63.6157 14.7627C63.3351 14.8333 63.1247 14.9746 62.9143 15.1865L62.4233 15.8928H54.4976V13.5619C54.4976 13.2793 54.3574 12.9262 54.147 12.7143C53.9365 12.5024 53.656 12.3611 53.3053 12.3611H41.6622C41.3817 12.3611 41.031 12.5024 40.8206 12.7143C40.6101 12.9262 40.4699 13.2087 40.4699 13.5619V18.2944H38.7164C38.4358 18.2944 38.1553 18.3651 37.9449 18.577C37.7345 18.7889 37.5942 19.0008 37.524 19.2833L36.7525 24.0158C36.472 24.1571 36.2615 24.2984 35.981 24.4397L31.4921 22.7444C31.2115 22.6738 30.931 22.6738 30.7206 22.7444C30.44 22.8151 30.2296 23.027 30.0893 23.2389C29.2477 24.7222 28.406 26.2055 27.6345 27.6182ZM42.8546 14.692H52.1831V17.023C52.1831 17.3055 52.3233 17.6587 52.5338 17.8706C52.7442 18.0825 53.0247 18.2238 53.3754 18.2238H60.8101L57.0227 23.4508C56.8824 23.6627 56.8122 23.8746 56.8122 24.1571C56.8122 24.9341 56.9525 25.7111 56.9525 26.4881V31.2206C56.9525 31.9976 56.9525 32.7746 56.9525 33.5516L56.8122 38.2841C58.0046 39.9793 59.2671 41.6746 60.4594 43.3698V46.7603C58.7761 47.4666 57.0226 48.2436 55.3393 48.95C55.1289 49.0206 54.9185 49.1619 54.7782 49.3738C54.6379 49.5857 54.5678 49.7976 54.5678 50.0095V52.3404H41.6622V46.4778H43.4157C43.6963 46.4778 43.9768 46.4071 44.1872 46.1952C44.3976 45.9833 44.5379 45.7714 44.6081 45.4889L45.3796 40.6857C45.6601 40.5444 45.8706 40.4031 46.1511 40.2619L50.64 41.9571C50.9206 42.0278 51.2011 42.0278 51.4115 41.9571C51.6921 41.8865 51.9025 41.6746 52.0428 41.4627C52.8143 40.1206 53.5858 38.7785 54.3574 37.3658C54.4976 37.1539 54.5678 36.8714 54.4976 36.5889C54.4275 36.3063 54.2872 36.0944 54.0768 35.8825L51.2713 33.5516C51.2713 32.7746 51.2713 31.9976 51.2713 31.2206L54.0768 28.8897C54.2872 28.6778 54.4275 28.4658 54.4976 28.1833C54.5678 27.9008 54.4976 27.6182 54.3574 27.4063C53.5858 26.0643 52.8143 24.7222 52.0428 23.3095C51.9025 23.0976 51.6921 22.8857 51.4115 22.8151C51.131 22.7444 50.8504 22.7444 50.64 22.8151L46.1511 24.5103C45.8706 24.369 45.6601 24.2277 45.3796 24.0865L44.6081 19.2833C44.5379 19.0008 44.3976 18.7889 44.1872 18.577C43.9768 18.3651 43.1351 18.2944 42.8546 18.2944V14.692ZM38.997 39.7674C38.997 39.5555 38.8567 39.4143 38.7865 39.2024C38.6463 39.0611 38.506 38.9198 38.2956 38.8492C37.8046 38.6373 37.3136 38.3547 36.8928 38.0016C36.7525 37.8603 36.5421 37.7897 36.3317 37.7897C36.1213 37.7897 35.9108 37.7897 35.7706 37.8603L31.6324 39.4143L30.2997 37.0833L33.7365 34.2579L33.8067 34.1873L33.8768 34.1166C33.947 34.046 34.0171 33.9047 34.0872 33.7635C34.1574 33.6222 34.1574 33.4809 34.1574 33.3397C34.1574 33.3397 34.1574 33.3397 34.1574 33.269C34.1574 33.269 34.1574 33.269 34.1574 33.1984V33.1278C34.0872 32.5627 34.0872 31.9976 34.1574 31.5031C34.1574 31.2912 34.1574 31.0793 34.0872 30.9381C34.0171 30.7262 33.8768 30.5849 33.7365 30.4436L30.2997 27.6182L31.6324 25.2873L35.7706 26.8412C35.981 26.9119 36.1213 26.9119 36.3317 26.9119C36.5421 26.9119 36.6824 26.8412 36.8928 26.7C37.3136 26.3468 37.8046 26.0643 38.2956 25.8524C38.506 25.7817 38.6463 25.6404 38.7865 25.4992C38.9268 25.3579 38.997 25.146 38.997 24.9341L39.6983 20.5547H42.3636L43.065 24.9341C43.065 25.146 43.2053 25.2873 43.2754 25.4992C43.4157 25.6404 43.556 25.7817 43.7664 25.8524C44.2574 26.0643 44.7483 26.3468 45.1692 26.7C45.3095 26.8412 45.5199 26.9119 45.7303 26.9119C45.9407 26.9119 46.1511 26.9119 46.2914 26.8412L50.4296 25.2873L51.7622 27.6182L48.3254 30.4436C48.1852 30.5849 48.0449 30.7262 47.9747 30.9381C47.9046 31.15 47.9046 31.2912 47.9046 31.5031C47.9747 32.0682 47.9747 32.6333 47.9046 33.1278C47.9046 33.3397 47.9046 33.5516 47.9747 33.6928C48.0449 33.9047 48.1852 34.046 48.3254 34.1873L51.7622 37.0127L50.4997 39.4143L46.3615 37.8603C46.1511 37.7897 46.0108 37.7897 45.8004 37.7897C45.59 37.7897 45.4497 37.8603 45.2393 38.0016C44.8185 38.3547 44.3275 38.6373 43.8365 38.8492C43.6261 38.9198 43.4858 39.0611 43.3456 39.2024C43.2053 39.3436 43.1351 39.5555 43.1351 39.7674L42.4338 44.1468H39.7685L38.997 39.7674ZM53.3754 66.3968C53.3754 68.5865 53.3754 71.3412 53.3754 73.5309C53.3754 73.8135 53.5157 74.1666 53.7261 74.3785L59.8983 80.5944C53.0949 80.5944 46.3615 80.5944 39.5581 80.5944C38.506 80.5944 37.524 80.5944 36.472 80.5944H28.1254L36.6122 72.0476C36.8226 71.8357 36.9629 71.5532 36.9629 71.2V54.742C42.7845 54.742 48.6761 54.742 54.4976 54.742V59.4746C54.4976 59.6865 54.5678 59.8984 54.6379 60.0397C54.7081 60.1809 54.8483 60.3928 55.0588 60.4635C55.4796 60.746 55.9004 60.9579 56.3213 61.2404C55.3393 63.0063 54.3574 64.5603 53.3754 66.3968ZM75.5393 50.0095C75.2588 50.0095 74.9081 50.1508 74.6976 50.3627C74.4872 50.5746 74.347 50.8571 74.347 51.2103V54.742H74.1365C73.2247 54.742 72.3831 54.6008 71.5414 54.2476C70.6997 53.8944 69.9983 53.4 69.3671 52.7643C69.1567 52.5523 68.8761 52.4111 68.5254 52.4111C68.2449 52.4111 67.8942 52.5523 67.6838 52.7643C67.4733 52.9762 67.3331 53.2587 67.3331 53.6119C67.3331 53.8944 67.4733 54.2476 67.6838 54.4595C69.0865 55.8722 70.84 56.7905 72.8039 57.073L72.3831 57.4968C72.1726 57.7087 72.0324 57.9912 72.0324 58.3444V64.2071H66.281C63.6157 62.8651 61.0206 61.4524 58.4956 59.8277C57.9345 59.4746 57.3733 59.1214 56.8824 58.8389V50.7865L62.0025 48.7381C62.2129 48.6674 62.4233 48.5262 62.5636 48.3143C62.7039 48.1024 62.774 47.8904 62.774 47.6785V42.946C62.774 42.6635 62.7039 42.4516 62.5636 42.2397L59.2671 37.8603V24.5103L64.3171 17.3762L66.8421 18.6476C69.8581 20.1309 72.3831 22.4619 74.1365 25.3579C75.89 28.2539 76.8018 31.5738 76.8018 34.9643C76.8018 35.8825 76.6615 36.7301 76.3108 37.5778C75.9602 38.4254 75.4692 39.1317 74.8379 39.7674C74.6976 39.9087 74.5574 40.1206 74.4872 40.4031C74.4171 40.6151 74.4872 40.8976 74.5574 41.1095L78.4851 50.0801H75.5393V50.0095Z" fill="#2B2B2B"/>
</g>
<defs>
<clipPath id="clip0_104_4577">
<rect width="101" height="89" fill="white"/>
</clipPath>
</defs>
</svg>
