<svg width="192" height="44" viewBox="0 0 192 44" fill="none" xmlns="http://www.w3.org/2000/svg">
<g clip-path="url(#clip0_571_28237)">
<path d="M-0.0786133 9.43923H0.0234029V9.30981L-0.0786133 9.43923Z" fill="#2B2B2B"/>
<path d="M46.2998 38.2826V4.83997H51.7564V33.7324H79.9469L76.3606 38.2826H46.2998Z" fill="#2B2B2B"/>
<path d="M83.3813 38.2826V4.83997H88.8379V38.28H83.3813V38.2826Z" fill="#2B2B2B"/>
<path d="M132.587 38.2826L116.22 24.1844L99.7511 38.28H92.8794L113.037 21.0837L94.1925 4.83997H101.771L116.725 17.8873L131.779 4.83997H138.902L120.058 20.887L140.317 38.2826H132.587Z" fill="#2B2B2B"/>
<path d="M155.423 38.2826L158.758 33.7324H182.3L166.741 10.5393L147.798 38.2826H141.332L163.257 6.44209C163.963 5.39127 165.177 4.39221 166.843 4.39221C168.46 4.39221 169.674 5.29292 170.43 6.44209L192.052 38.2826H155.423Z" fill="#2B2B2B"/>
<path d="M26.0402 4.83997H0.0234375V38.2826H5.48V27.3835H26.0402C35.3865 27.3835 41.2459 23.3847 41.2459 16.2877C41.2459 9.13902 35.3368 4.83997 26.0402 4.83997ZM24.1699 22.8851H5.44862V9.43926H24.1202C31.0416 9.43926 35.7893 11.0388 35.7893 16.2386C35.7893 21.0863 30.5865 22.8851 24.1699 22.8851Z" fill="#2B2B2B"/>
</g>
<defs>
<clipPath id="clip0_571_28237">
<rect width="192" height="44" fill="white"/>
</clipPath>
</defs>
</svg>
