<svg width="55" height="55" viewBox="0 0 55 55" fill="none" xmlns="http://www.w3.org/2000/svg">
<g filter="url(#filter0_d_104_3886)">
<g filter="url(#filter1_b_104_3886)">
<rect x="9" y="1" width="45" height="45" rx="2" fill="#4F4E4E" fill-opacity="0.15"/>
<rect x="8.5" y="0.5" width="46" height="46" rx="2.5" stroke="#4F4E4E"/>
</g>
<g clip-path="url(#clip0_104_3886)">
<path d="M24.366 33.6149C25.8818 34.4914 27.571 35.0256 29.3151 35.18C31.0592 35.3344 32.816 35.1053 34.4622 34.5087C36.1083 33.9121 37.604 32.9624 38.8442 31.7264C40.0844 30.4904 41.0391 28.998 41.6413 27.3539C42.2435 25.7097 42.4786 23.9537 42.3301 22.2091C42.1816 20.4645 41.6531 18.7735 40.7817 17.2547C39.9103 15.736 38.7171 14.4264 37.2859 13.4178C35.8546 12.4092 34.22 11.726 32.4967 11.4161C31.9809 11.3228 31.4495 11.3695 30.9579 11.5514C30.4663 11.7333 30.0325 12.0437 29.7018 12.4503C29.371 12.857 29.1554 13.3449 29.0774 13.8632C28.9993 14.3815 29.0618 14.9113 29.2582 15.3973C31.715 21.3421 29.3951 25.3363 23.0352 26.1758C22.5161 26.2489 22.0261 26.4598 21.6163 26.7867C21.2065 27.1136 20.8919 27.5445 20.7053 28.0344C20.5187 28.5242 20.4669 29.0552 20.5554 29.5719C20.6439 30.0886 20.8694 30.5721 21.2084 30.972C22.1036 32.0255 23.1713 32.9192 24.366 33.6149V33.6149ZM34.866 15.4283C35.9997 16.0812 36.9774 16.9734 37.7311 18.0427C38.4847 19.112 38.9962 20.3328 39.2299 21.62C39.4636 22.9071 39.4138 24.2298 39.0841 25.4958C38.7544 26.7618 38.1526 27.9407 37.3208 28.9504C36.4889 29.96 35.4469 30.7762 34.2674 31.3421C33.0879 31.9079 31.7992 32.2098 30.4911 32.2268C29.183 32.2437 27.8869 31.9752 26.6931 31.4401C25.4994 30.905 24.4366 30.116 23.5789 29.1282C31.7501 27.9973 35.183 22.0072 32.0869 14.3919C33.0627 14.5869 34.0009 14.9368 34.866 15.4283V15.4283Z" fill="black"/>
</g>
</g>
<defs>
<filter id="filter0_d_104_3886" x="0" y="0" width="55" height="55" filterUnits="userSpaceOnUse" color-interpolation-filters="sRGB">
<feFlood flood-opacity="0" result="BackgroundImageFix"/>
<feColorMatrix in="SourceAlpha" type="matrix" values="0 0 0 0 0 0 0 0 0 0 0 0 0 0 0 0 0 0 127 0" result="hardAlpha"/>
<feOffset dx="-4" dy="4"/>
<feGaussianBlur stdDeviation="2"/>
<feComposite in2="hardAlpha" operator="out"/>
<feColorMatrix type="matrix" values="0 0 0 0 0 0 0 0 0 0 0 0 0 0 0 0 0 0 0.1 0"/>
<feBlend mode="normal" in2="BackgroundImageFix" result="effect1_dropShadow_104_3886"/>
<feBlend mode="normal" in="SourceGraphic" in2="effect1_dropShadow_104_3886" result="shape"/>
</filter>
<filter id="filter1_b_104_3886" x="4" y="-4" width="55" height="55" filterUnits="userSpaceOnUse" color-interpolation-filters="sRGB">
<feFlood flood-opacity="0" result="BackgroundImageFix"/>
<feGaussianBlur in="BackgroundImageFix" stdDeviation="2"/>
<feComposite in2="SourceAlpha" operator="in" result="effect1_backgroundBlur_104_3886"/>
<feBlend mode="normal" in="SourceGraphic" in2="effect1_backgroundBlur_104_3886" result="shape"/>
</filter>
<clipPath id="clip0_104_3886">
<rect width="24" height="24" fill="white" transform="matrix(-0.866025 -0.5 -0.5 0.866025 49.3564 20.3301)"/>
</clipPath>
</defs>
</svg>
