<svg width="79" height="70" viewBox="0 0 79 70" fill="none" xmlns="http://www.w3.org/2000/svg">
<path d="M13.1289 12.5484C13.1289 13.4096 13.8989 14.1477 14.7972 14.1477C15.6956 14.1477 16.4656 13.4096 16.4656 12.5484C16.4656 11.6873 15.6956 11.0721 14.7972 11.0721C13.8989 10.8261 13.1289 11.6873 13.1289 12.5484Z" fill="white"/>
<path d="M61.7672 4.67479C62.6655 4.67479 63.4355 3.93665 63.4355 3.07549C63.4355 2.21433 62.6655 1.4762 61.7672 1.4762C60.8689 1.4762 60.0989 2.21433 60.0989 3.07549C60.0989 4.05968 60.7405 4.67479 61.7672 4.67479Z" fill="white"/>
<path d="M7.58099 10.826C10.661 10.826 13.2277 8.36555 13.2277 5.41301C13.2277 2.46046 10.661 0 7.58099 0C4.50099 0 1.93433 2.46046 1.93433 5.41301C1.93433 8.48858 4.50099 10.826 7.58099 10.826ZM7.58099 3.19859C8.86433 3.19859 10.0193 4.18278 10.0193 5.53603C10.0193 6.76626 8.99266 7.87346 7.58099 7.87346C6.16933 7.87346 5.14266 6.88928 5.14266 5.53603C5.14266 4.18278 6.16933 3.19859 7.58099 3.19859Z" fill="white"/>
<path d="M68.1839 14.0247C70.8789 14.0247 73.0605 11.9333 73.0605 9.47281C73.0605 7.01235 70.8789 4.92096 68.1839 4.92096C65.4889 4.92096 63.4355 7.01235 63.4355 9.47281C63.4355 11.9333 65.4889 14.0247 68.1839 14.0247ZM68.1839 7.75048C69.0822 7.75048 69.8522 8.48862 69.8522 9.34978C69.8522 10.2109 69.0822 10.9491 68.1839 10.9491C67.2855 10.9491 66.5155 10.2109 66.5155 9.34978C66.5155 8.48862 67.2855 7.75048 68.1839 7.75048Z" fill="white"/>
<path d="M76.1404 59.0511H72.9321V23.0054C72.9321 19.8068 70.2371 17.1003 66.7721 17.1003H58.3021V12.0563C58.3021 8.98076 55.6071 6.39728 52.3987 6.39728H25.5771C22.3687 6.39728 19.6737 8.98076 19.6737 12.0563V17.2233H11.2037C7.86708 17.2233 5.17208 19.8068 5.17208 23.1284V59.0511H1.96374C1.06541 59.0511 0.29541 59.7892 0.29541 60.6504C0.29541 65.6943 4.65874 70.0001 10.0487 70.0001H68.3121C73.5737 70.0001 78.0654 65.8173 78.0654 60.6504C77.9371 59.6662 77.0387 59.0511 76.1404 59.0511ZM66.9004 20.1758C68.4404 20.1758 69.8521 21.4061 69.8521 23.0054V58.928H66.6437V24.8507C66.6437 23.9895 65.8737 23.2514 65.1037 23.2514H58.6871V20.1758H66.9004ZM47.1371 59.0511C46.4954 59.0511 45.9821 59.4201 45.7254 59.9122L44.4421 62.1266H33.4054L32.2504 59.9122C31.9937 59.4201 31.4804 59.0511 30.8387 59.0511H14.7971V26.45H19.6737V44.0423C19.6737 47.1178 22.3687 49.7013 25.5771 49.7013H52.5271C55.7354 49.7013 58.4304 47.1178 58.4304 44.0423V26.45H63.3071V58.928H47.1371V59.0511ZM55.2221 44.0423C55.2221 45.3955 54.0671 46.6258 52.5271 46.6258H25.5771C24.1654 46.6258 22.8821 45.5185 22.8821 44.0423V18.6996H55.2221V44.0423ZM25.5771 9.34983H52.5271C53.9387 9.34983 55.2221 10.457 55.2221 11.9333V15.501H22.8821V11.9333C22.8821 10.457 24.0371 9.34983 25.5771 9.34983ZM8.38041 23.0054C8.38041 21.5291 9.66374 20.1758 11.3321 20.1758H19.8021V23.2514H13.3854C12.4871 23.2514 11.7171 23.9895 11.7171 24.8507V58.928H8.38041V23.0054ZM68.1837 66.6785H9.92041C6.96874 66.6785 4.40208 64.7101 3.76041 62.0036H30.0687L31.2237 64.218C31.4804 64.7101 31.9937 65.0792 32.6354 65.0792H45.5971C46.2387 65.0792 46.7521 64.7101 47.0087 64.218L48.1637 62.0036H74.4721C73.7021 64.7101 71.1354 66.6785 68.1837 66.6785Z" fill="white"/>
<path d="M29.2989 10.826H26.0906V13.9016H29.2989V10.826Z" fill="white"/>
<path d="M42.3882 37.2759H30.9666V40.3515H42.3882V37.2759Z" fill="white"/>
<path d="M45.4688 32.6011H27.7588V35.6766H45.4688V32.6011Z" fill="white"/>
<path d="M50.3451 32.6011H47.1367V35.6766H50.3451V32.6011Z" fill="white"/>
<path d="M50.3455 41.9508H27.7588V45.0264H50.3455V41.9508Z" fill="white"/>
<path d="M34.1749 10.826H30.9666V13.9016H34.1749V10.826Z" fill="white"/>
<path d="M44.3138 29.1564C44.9554 29.7715 45.9821 29.7715 46.6238 29.1564L49.8321 26.0808C50.4738 25.4657 50.4738 24.4815 49.8321 23.8664L46.6238 20.7908C45.9821 20.1757 44.9554 20.1757 44.3138 20.7908C43.6721 21.4059 43.6721 22.3901 44.3138 23.0052L46.3671 24.9736L44.3138 26.9419C43.6721 27.5571 43.6721 28.5412 44.3138 29.1564Z" fill="white"/>
<path d="M31.4808 29.1564C32.1225 29.7715 33.1492 29.7715 33.7908 29.1564C34.4325 28.5412 34.4325 27.5571 33.7908 26.9419L31.7375 24.9736L33.7908 23.0052C34.4325 22.3901 34.4325 21.4059 33.7908 20.7908C33.1492 20.1757 32.1225 20.1757 31.4808 20.7908L28.2725 23.8664C27.6308 24.4815 27.6308 25.4657 28.2725 26.0808L31.4808 29.1564Z" fill="white"/>
<path d="M37.384 29.5255C38.0257 29.5255 38.539 29.1564 38.7957 28.6643L42.004 22.5132C42.389 21.7751 42.1324 20.7909 41.234 20.4218C40.464 20.0527 39.4374 20.2988 39.0524 21.16L35.844 27.3111C35.459 28.4183 36.229 29.5255 37.384 29.5255Z" fill="white"/>
</svg>
