<svg width="135" height="32" viewBox="0 0 135 32" fill="none" xmlns="http://www.w3.org/2000/svg">
<g clip-path="url(#clip0_788_1514)">
<path d="M-0.0551758 6.72922H0.0165543V6.63696L-0.0551758 6.72922Z" fill="white"/>
<path d="M32.5544 27.2917V3.45044H36.3911V24.0479H56.2126L53.691 27.2917H32.5544Z" fill="white"/>
<path d="M58.6276 27.2917V3.45044H62.4642V27.2899H58.6276V27.2917Z" fill="white"/>
<path d="M93.2254 27.2917L81.7173 17.2411L70.1375 27.2899H65.3058L79.4789 15.0306L66.2291 3.45044H71.5574L82.0723 12.7519L92.6571 3.45044H97.6653L84.4155 14.8904L98.6603 27.2917H93.2254Z" fill="white"/>
<path d="M109.282 27.2917L111.627 24.0479H128.18L117.24 7.51347L103.921 27.2917H99.374L114.791 4.59259C115.287 3.84346 116.141 3.13123 117.312 3.13123C118.449 3.13123 119.302 3.77334 119.834 4.59259L135.037 27.2917H109.282Z" fill="white"/>
<path d="M18.3097 3.45044H0.0166016V27.2917H3.85325V19.5217H18.3097C24.8812 19.5217 29.0011 16.671 29.0011 11.6116C29.0011 6.51524 24.8463 3.45044 18.3097 3.45044ZM16.9946 16.3149H3.83118V6.72928H16.9597C21.8263 6.72928 25.1645 7.86959 25.1645 11.5765C25.1645 15.0325 21.5062 16.3149 16.9946 16.3149Z" fill="white"/>
</g>
<defs>
<clipPath id="clip0_788_1514">
<rect width="135" height="31.3676" fill="white"/>
</clipPath>
</defs>
</svg>
