<svg width="192" height="44" viewBox="0 0 192 44" fill="none" xmlns="http://www.w3.org/2000/svg">
<g clip-path="url(#clip0_93_1137)">
<path d="M-0.0784912 9.43947H0.023525V9.31006L-0.0784912 9.43947Z" fill="white"/>
<path d="M46.2997 38.2827V4.84009H51.7562V33.7326H79.9468L76.3605 38.2827H46.2997Z" fill="white"/>
<path d="M83.3813 38.2827V4.84009H88.8379V38.2801H83.3813V38.2827Z" fill="white"/>
<path d="M132.587 38.2827L116.22 24.1846L99.751 38.2801H92.8793L113.037 21.0839L94.1924 4.84009H101.77L116.725 17.8874L131.779 4.84009H138.902L120.057 20.8871L140.317 38.2827H132.587Z" fill="white"/>
<path d="M155.423 38.2827L158.758 33.7326H182.301L166.742 10.5394L147.798 38.2827H141.332L163.257 6.44222C163.964 5.39139 165.177 4.39233 166.844 4.39233C168.46 4.39233 169.674 5.29304 170.43 6.44222L192.052 38.2827H155.423Z" fill="white"/>
<path d="M26.0403 4.84009H0.0235596V38.2827H5.48013V27.3836H26.0403C35.3866 27.3836 41.246 23.3848 41.246 16.2879C41.246 9.13915 35.3369 4.84009 26.0403 4.84009ZM24.17 22.8853H5.44874V9.43938H24.1203C31.0418 9.43938 35.7895 11.0389 35.7895 16.2387C35.7895 21.0864 30.5866 22.8853 24.17 22.8853Z" fill="white"/>
</g>
<defs>
<clipPath id="clip0_93_1137">
<rect width="192" height="44" fill="white"/>
</clipPath>
</defs>
</svg>
