<svg width="115" height="60" viewBox="0 0 115 60" fill="none" xmlns="http://www.w3.org/2000/svg">
<g filter="url(#filter0_d_652_2657)">
<path d="M93.8537 15.1446L108.877 6L105.611 23.636L101.692 17.1042L93.8537 15.1446Z" fill="#907CFF"/>
<path d="M93.6952 15.7783L92.1791 15.3993L93.514 14.5867L108.537 5.44205L109.785 4.68245L109.519 6.11894L106.253 23.755L105.939 25.4522L105.051 23.9721L101.271 17.6722L93.6952 15.7783Z" stroke="white" stroke-width="1.30637"/>
</g>
<g filter="url(#filter1_d_652_2657)">
<rect width="86.1799" height="22.3717" transform="translate(5.71436 29.5148)" fill="#907CFF"/>
<path d="M20.9661 40.9317C20.9661 42.0277 20.7683 42.9748 20.3725 43.7732C19.9767 44.5715 19.4338 45.1871 18.7437 45.6201C18.0537 46.0531 17.2655 46.2696 16.3792 46.2696C15.493 46.2696 14.7048 46.0531 14.0147 45.6201C13.3247 45.1871 12.7817 44.5715 12.386 43.7732C11.9902 42.9748 11.7923 42.0277 11.7923 40.9317C11.7923 39.8357 11.9902 38.8886 12.386 38.0902C12.7817 37.2919 13.3247 36.6763 14.0147 36.2433C14.7048 35.8103 15.493 35.5938 16.3792 35.5938C17.2655 35.5938 18.0537 35.8103 18.7437 36.2433C19.4338 36.6763 19.9767 37.2919 20.3725 38.0902C20.7683 38.8886 20.9661 39.8357 20.9661 40.9317ZM19.7484 40.9317C19.7484 40.0319 19.5979 39.2725 19.2968 38.6535C18.9991 38.0344 18.5949 37.5659 18.0841 37.2479C17.5767 36.93 17.0084 36.771 16.3792 36.771C15.75 36.771 15.1801 36.93 14.6693 37.2479C14.1619 37.5659 13.7576 38.0344 13.4566 38.6535C13.1589 39.2725 13.0101 40.0319 13.0101 40.9317C13.0101 41.8315 13.1589 42.5909 13.4566 43.2099C13.7576 43.829 14.1619 44.2975 14.6693 44.6154C15.1801 44.9334 15.75 45.0924 16.3792 45.0924C17.0084 45.0924 17.5767 44.9334 18.0841 44.6154C18.5949 44.2975 18.9991 43.829 19.2968 43.2099C19.5979 42.5909 19.7484 41.8315 19.7484 40.9317ZM24.1886 35.7359V46.1275H22.9911V35.7359H24.1886ZM26.4533 46.1275V38.3338H27.6507V46.1275H26.4533ZM27.0621 37.0348C26.8287 37.0348 26.6275 36.9553 26.4583 36.7964C26.2926 36.6374 26.2097 36.4463 26.2097 36.223C26.2097 35.9997 26.2926 35.8086 26.4583 35.6496C26.6275 35.4906 26.8287 35.4112 27.0621 35.4112C27.2955 35.4112 27.4951 35.4906 27.6609 35.6496C27.83 35.8086 27.9146 35.9997 27.9146 36.223C27.9146 36.4463 27.83 36.6374 27.6609 36.7964C27.4951 36.9553 27.2955 37.0348 27.0621 37.0348ZM36.2884 38.3338L33.4064 46.1275H32.1886L29.3065 38.3338H30.6055L32.7569 44.5444H32.8381L34.9894 38.3338H36.2884ZM37.9404 46.1275V38.3338H39.1379V46.1275H37.9404ZM38.5493 37.0348C38.3159 37.0348 38.1146 36.9553 37.9455 36.7964C37.7797 36.6374 37.6968 36.4463 37.6968 36.223C37.6968 35.9997 37.7797 35.8086 37.9455 35.6496C38.1146 35.4906 38.3159 35.4112 38.5493 35.4112C38.7827 35.4112 38.9823 35.4906 39.148 35.6496C39.3172 35.8086 39.4017 35.9997 39.4017 36.223C39.4017 36.4463 39.3172 36.6374 39.148 36.7964C38.9823 36.9553 38.7827 37.0348 38.5493 37.0348ZM43.696 46.3102C43.2022 46.3102 42.7539 46.2171 42.3514 46.0311C41.9489 45.8417 41.6292 45.5694 41.3924 45.2142C41.1556 44.8556 41.0372 44.4226 41.0372 43.9152C41.0372 43.4687 41.1252 43.1068 41.3011 42.8294C41.477 42.5486 41.7121 42.3287 42.0064 42.1698C42.3007 42.0108 42.6254 41.8924 42.9806 41.8146C43.3392 41.7334 43.6994 41.6691 44.0614 41.6218C44.5349 41.5609 44.9189 41.5152 45.2132 41.4848C45.5108 41.4509 45.7273 41.3951 45.8626 41.3173C46.0013 41.2395 46.0707 41.1042 46.0707 40.9114V40.8708C46.0707 40.3702 45.9337 39.9812 45.6597 39.7038C45.3891 39.4264 44.9781 39.2877 44.4267 39.2877C43.855 39.2877 43.4068 39.4129 43.0821 39.6632C42.7573 39.9135 42.529 40.1807 42.3971 40.4649L41.2605 40.059C41.4635 39.5854 41.7341 39.2167 42.0723 38.9528C42.414 38.6856 42.7861 38.4995 43.1886 38.3947C43.5945 38.2864 43.9937 38.2323 44.3861 38.2323C44.6364 38.2323 44.9239 38.2628 45.2487 38.3236C45.5768 38.3811 45.8931 38.5012 46.1975 38.6839C46.5053 38.8666 46.7607 39.1423 46.9637 39.511C47.1667 39.8797 47.2681 40.3736 47.2681 40.9926V46.1275H46.0707V45.0721H46.0098C45.9286 45.2412 45.7933 45.4222 45.6039 45.615C45.4144 45.8078 45.1624 45.9719 44.8478 46.1072C44.5332 46.2425 44.1493 46.3102 43.696 46.3102ZM43.8787 45.2345C44.3523 45.2345 44.7514 45.1414 45.0762 44.9554C45.4043 44.7694 45.6512 44.5292 45.817 44.2349C45.9861 43.9406 46.0707 43.6311 46.0707 43.3063V42.2104C46.0199 42.2712 45.9083 42.3271 45.7358 42.3778C45.5667 42.4252 45.3705 42.4674 45.1472 42.5046C44.9273 42.5385 44.7125 42.5689 44.5028 42.596C44.2965 42.6197 44.129 42.64 44.0005 42.6569C43.6893 42.6975 43.3983 42.7634 43.1277 42.8548C42.8605 42.9427 42.644 43.0763 42.4783 43.2556C42.3159 43.4315 42.2347 43.6717 42.2347 43.9761C42.2347 44.3922 42.3886 44.7068 42.6964 44.9199C43.0076 45.1296 43.4017 45.2345 43.8787 45.2345ZM53.7777 46.1275V35.7359H57.2889C58.1007 35.7359 58.7671 35.8746 59.2881 36.152C59.809 36.426 60.1946 36.8031 60.4449 37.2835C60.6953 37.7638 60.8204 38.3101 60.8204 38.9224C60.8204 39.5346 60.6953 40.0776 60.4449 40.5511C60.1946 41.0247 59.8107 41.3968 59.2931 41.6674C58.7756 41.9347 58.1143 42.0683 57.3092 42.0683H54.4677V40.9317H57.2686C57.8234 40.9317 58.2699 40.8505 58.6081 40.6881C58.9498 40.5258 59.1967 40.2958 59.349 39.9981C59.5046 39.697 59.5824 39.3385 59.5824 38.9224C59.5824 38.5063 59.5046 38.1427 59.349 37.8315C59.1933 37.5203 58.9447 37.2801 58.6031 37.111C58.2614 36.9384 57.8098 36.8522 57.2483 36.8522H55.036V46.1275H53.7777ZM58.669 41.4594L61.2263 46.1275H59.765L57.2483 41.4594H58.669ZM64.0238 41.4391V46.1275H62.8263V35.7359H64.0238V39.5516H64.1253C64.308 39.149 64.582 38.8294 64.9473 38.5926C65.316 38.3524 65.8065 38.2323 66.4188 38.2323C66.9498 38.2323 67.415 38.3389 67.8141 38.552C68.2133 38.7617 68.5228 39.0847 68.7427 39.5211C68.9659 39.9541 69.0775 40.5055 69.0775 41.1752V46.1275H67.8801V41.2564C67.8801 40.6374 67.7194 40.1588 67.398 39.8205C67.0801 39.4788 66.6386 39.308 66.0737 39.308C65.6813 39.308 65.3295 39.3909 65.0183 39.5566C64.7105 39.7224 64.4669 39.9642 64.2877 40.2822C64.1118 40.6002 64.0238 40.9858 64.0238 41.4391ZM71.8319 49.0501C71.6289 49.0501 71.4479 49.0332 71.289 48.9994C71.13 48.969 71.02 48.9385 70.9591 48.9081L71.2636 47.8527C71.5545 47.9271 71.8116 47.9542 72.0348 47.9339C72.2581 47.9136 72.456 47.8138 72.6285 47.6345C72.8044 47.4586 72.9651 47.1728 73.1105 46.777L73.3338 46.1681L70.4517 38.3338H71.7507L73.9021 44.5444H73.9833L76.1347 38.3338H77.4336L74.1253 47.2641C73.9765 47.6666 73.7921 47.9998 73.5723 48.2637C73.3524 48.5309 73.097 48.7288 72.8061 48.8573C72.5186 48.9859 72.1938 49.0501 71.8319 49.0501ZM82.0742 46.2899C81.3233 46.2899 80.6755 46.1241 80.1309 45.7926C79.5896 45.4577 79.1719 44.9909 78.8776 44.3922C78.5867 43.7901 78.4412 43.0898 78.4412 42.2915C78.4412 41.4932 78.5867 40.7896 78.8776 40.1807C79.1719 39.5685 79.5812 39.0915 80.1055 38.7499C80.6332 38.4048 81.2488 38.2323 81.9524 38.2323C82.3584 38.2323 82.7592 38.3 83.155 38.4353C83.5508 38.5706 83.911 38.7905 84.2358 39.0949C84.5605 39.396 84.8193 39.7951 85.0121 40.2924C85.2049 40.7896 85.3013 41.4019 85.3013 42.1292V42.6366H79.2936V41.6015H84.0835C84.0835 41.1617 83.9956 40.7693 83.8197 40.4243C83.6472 40.0793 83.4002 39.807 83.0789 39.6074C82.7609 39.4078 82.3854 39.308 81.9524 39.308C81.4755 39.308 81.0628 39.4264 80.7144 39.6632C80.3693 39.8966 80.1038 40.201 79.9178 40.5765C79.7317 40.952 79.6387 41.3545 79.6387 41.7841V42.4742C79.6387 43.0628 79.7402 43.5617 79.9431 43.971C80.1495 44.377 80.4353 44.6865 80.8006 44.8996C81.166 45.1093 81.5905 45.2142 82.0742 45.2142C82.3888 45.2142 82.6729 45.1702 82.9267 45.0823C83.1837 44.9909 83.4053 44.8556 83.5913 44.6763C83.7774 44.4937 83.9212 44.267 84.0226 43.9964L85.1795 44.3211C85.0577 44.7135 84.8531 45.0586 84.5656 45.3562C84.278 45.6505 83.9229 45.8806 83.5 46.0463C83.0772 46.2087 82.6019 46.2899 82.0742 46.2899Z" fill="white"/>
</g>
<defs>
<filter id="filter0_d_652_2657" x="86.5853" y="0.752181" width="28.0273" height="31.7417" filterUnits="userSpaceOnUse" color-interpolation-filters="sRGB">
<feFlood flood-opacity="0" result="BackgroundImageFix"/>
<feColorMatrix in="SourceAlpha" type="matrix" values="0 0 0 0 0 0 0 0 0 0 0 0 0 0 0 0 0 0 127 0" result="hardAlpha"/>
<feOffset dy="1.30637"/>
<feGaussianBlur stdDeviation="1.95956"/>
<feColorMatrix type="matrix" values="0 0 0 0 0 0 0 0 0 0 0 0 0 0 0 0 0 0 0.4 0"/>
<feBlend mode="normal" in2="BackgroundImageFix" result="effect1_dropShadow_652_2657"/>
<feBlend mode="normal" in="SourceGraphic" in2="effect1_dropShadow_652_2657" result="shape"/>
</filter>
<filter id="filter1_d_652_2657" x="0.488859" y="26.9021" width="96.6309" height="32.8226" filterUnits="userSpaceOnUse" color-interpolation-filters="sRGB">
<feFlood flood-opacity="0" result="BackgroundImageFix"/>
<feColorMatrix in="SourceAlpha" type="matrix" values="0 0 0 0 0 0 0 0 0 0 0 0 0 0 0 0 0 0 127 0" result="hardAlpha"/>
<feOffset dy="2.61275"/>
<feGaussianBlur stdDeviation="2.61275"/>
<feColorMatrix type="matrix" values="0 0 0 0 0 0 0 0 0 0 0 0 0 0 0 0 0 0 0.12 0"/>
<feBlend mode="normal" in2="BackgroundImageFix" result="effect1_dropShadow_652_2657"/>
<feBlend mode="normal" in="SourceGraphic" in2="effect1_dropShadow_652_2657" result="shape"/>
</filter>
</defs>
</svg>
