<svg width="115" height="60" viewBox="0 0 115 60" fill="none" xmlns="http://www.w3.org/2000/svg">
<g filter="url(#filter0_d_457_318)">
<path d="M21.0233 15.1446L6 6L9.26594 23.636L13.1851 17.1042L21.0233 15.1446Z" fill="#907CFF"/>
<path d="M21.1817 15.7783L22.6979 15.3993L21.3629 14.5867L6.33962 5.44205L5.09172 4.68245L5.35773 6.11894L8.62367 23.755L8.93797 25.4522L9.82604 23.9721L13.606 17.6722L21.1817 15.7783Z" stroke="white" stroke-width="1.30637"/>
</g>
<g filter="url(#filter1_d_457_318)">
<rect width="86.1799" height="22.3717" transform="translate(22.9829 29.5148)" fill="#907CFF"/>
<path d="M38.2347 40.9317C38.2347 42.0277 38.0368 42.9748 37.641 43.7732C37.2453 44.5715 36.7023 45.1871 36.0123 45.6201C35.3222 46.0531 34.534 46.2696 33.6478 46.2696C32.7615 46.2696 31.9733 46.0531 31.2833 45.6201C30.5932 45.1871 30.0503 44.5715 29.6545 43.7732C29.2587 42.9748 29.0608 42.0277 29.0608 40.9317C29.0608 39.8357 29.2587 38.8886 29.6545 38.0902C30.0503 37.2919 30.5932 36.6763 31.2833 36.2433C31.9733 35.8103 32.7615 35.5938 33.6478 35.5938C34.534 35.5938 35.3222 35.8103 36.0123 36.2433C36.7023 36.6763 37.2453 37.2919 37.641 38.0902C38.0368 38.8886 38.2347 39.8357 38.2347 40.9317ZM37.0169 40.9317C37.0169 40.0319 36.8664 39.2725 36.5653 38.6535C36.2677 38.0344 35.8634 37.5659 35.3526 37.2479C34.8452 36.93 34.2769 36.771 33.6478 36.771C33.0186 36.771 32.4486 36.93 31.9378 37.2479C31.4304 37.5659 31.0262 38.0344 30.7251 38.6535C30.4274 39.2725 30.2786 40.0319 30.2786 40.9317C30.2786 41.8315 30.4274 42.5909 30.7251 43.2099C31.0262 43.829 31.4304 44.2975 31.9378 44.6154C32.4486 44.9334 33.0186 45.0924 33.6478 45.0924C34.2769 45.0924 34.8452 44.9334 35.3526 44.6154C35.8634 44.2975 36.2677 43.829 36.5653 43.2099C36.8664 42.5909 37.0169 41.8315 37.0169 40.9317ZM41.4571 35.7359V46.1275H40.2596V35.7359H41.4571ZM43.7218 46.1275V38.3338H44.9193V46.1275H43.7218ZM44.3307 37.0348C44.0973 37.0348 43.896 36.9553 43.7269 36.7964C43.5611 36.6374 43.4782 36.4463 43.4782 36.223C43.4782 35.9997 43.5611 35.8086 43.7269 35.6496C43.896 35.4906 44.0973 35.4112 44.3307 35.4112C44.5641 35.4112 44.7637 35.4906 44.9294 35.6496C45.0985 35.8086 45.1831 35.9997 45.1831 36.223C45.1831 36.4463 45.0985 36.6374 44.9294 36.7964C44.7637 36.9553 44.5641 37.0348 44.3307 37.0348ZM53.5569 38.3338L50.6749 46.1275H49.4571L46.5751 38.3338H47.874L50.0254 44.5444H50.1066L52.258 38.3338H53.5569ZM55.2089 46.1275V38.3338H56.4064V46.1275H55.2089ZM55.8178 37.0348C55.5844 37.0348 55.3832 36.9553 55.214 36.7964C55.0483 36.6374 54.9654 36.4463 54.9654 36.223C54.9654 35.9997 55.0483 35.8086 55.214 35.6496C55.3832 35.4906 55.5844 35.4112 55.8178 35.4112C56.0512 35.4112 56.2508 35.4906 56.4166 35.6496C56.5857 35.8086 56.6703 35.9997 56.6703 36.223C56.6703 36.4463 56.5857 36.6374 56.4166 36.7964C56.2508 36.9553 56.0512 37.0348 55.8178 37.0348ZM60.9646 46.3102C60.4707 46.3102 60.0225 46.2171 59.6199 46.0311C59.2174 45.8417 58.8977 45.5694 58.661 45.2142C58.4242 44.8556 58.3058 44.4226 58.3058 43.9152C58.3058 43.4687 58.3937 43.1068 58.5696 42.8294C58.7455 42.5486 58.9806 42.3287 59.2749 42.1698C59.5692 42.0108 59.8939 41.8924 60.2491 41.8146C60.6077 41.7334 60.9679 41.6691 61.3299 41.6218C61.8035 41.5609 62.1874 41.5152 62.4817 41.4848C62.7794 41.4509 62.9959 41.3951 63.1312 41.3173C63.2699 41.2395 63.3392 41.1042 63.3392 40.9114V40.8708C63.3392 40.3702 63.2022 39.9812 62.9282 39.7038C62.6576 39.4264 62.2466 39.2877 61.6952 39.2877C61.1236 39.2877 60.6753 39.4129 60.3506 39.6632C60.0259 39.9135 59.7975 40.1807 59.6656 40.4649L58.529 40.059C58.732 39.5854 59.0026 39.2167 59.3409 38.9528C59.6825 38.6856 60.0546 38.4995 60.4572 38.3947C60.8631 38.2864 61.2622 38.2323 61.6546 38.2323C61.905 38.2323 62.1925 38.2628 62.5172 38.3236C62.8453 38.3811 63.1616 38.5012 63.4661 38.6839C63.7739 38.8666 64.0293 39.1423 64.2322 39.511C64.4352 39.8797 64.5367 40.3736 64.5367 40.9926V46.1275H63.3392V45.0721H63.2783C63.1971 45.2412 63.0618 45.4222 62.8724 45.615C62.683 45.8078 62.431 45.9719 62.1164 46.1072C61.8018 46.2425 61.4178 46.3102 60.9646 46.3102ZM61.1472 45.2345C61.6208 45.2345 62.02 45.1414 62.3447 44.9554C62.6728 44.7694 62.9198 44.5292 63.0855 44.2349C63.2546 43.9406 63.3392 43.6311 63.3392 43.3063V42.2104C63.2885 42.2712 63.1768 42.3271 63.0043 42.3778C62.8352 42.4252 62.639 42.4674 62.4157 42.5046C62.1959 42.5385 61.9811 42.5689 61.7713 42.596C61.565 42.6197 61.3975 42.64 61.269 42.6569C60.9578 42.6975 60.6669 42.7634 60.3963 42.8548C60.129 42.9427 59.9125 43.0763 59.7468 43.2556C59.5844 43.4315 59.5032 43.6717 59.5032 43.9761C59.5032 44.3922 59.6572 44.7068 59.965 44.9199C60.2762 45.1296 60.6703 45.2345 61.1472 45.2345ZM71.0462 46.1275V35.7359H74.5574C75.3693 35.7359 76.0357 35.8746 76.5566 36.152C77.0775 36.426 77.4632 36.8031 77.7135 37.2835C77.9638 37.7638 78.089 38.3101 78.089 38.9224C78.089 39.5346 77.9638 40.0776 77.7135 40.5511C77.4632 41.0247 77.0792 41.3968 76.5617 41.6674C76.0441 41.9347 75.3828 42.0683 74.5777 42.0683H71.7363V40.9317H74.5371C75.0919 40.9317 75.5384 40.8505 75.8767 40.6881C76.2183 40.5258 76.4653 40.2958 76.6175 39.9981C76.7731 39.697 76.8509 39.3385 76.8509 38.9224C76.8509 38.5063 76.7731 38.1427 76.6175 37.8315C76.4619 37.5203 76.2133 37.2801 75.8716 37.111C75.53 36.9384 75.0784 36.8522 74.5168 36.8522H72.3046V46.1275H71.0462ZM75.9376 41.4594L78.4949 46.1275H77.0336L74.5168 41.4594H75.9376ZM81.2923 41.4391V46.1275H80.0949V35.7359H81.2923V39.5516H81.3938C81.5765 39.149 81.8505 38.8294 82.2158 38.5926C82.5845 38.3524 83.075 38.2323 83.6873 38.2323C84.2184 38.2323 84.6835 38.3389 85.0826 38.552C85.4818 38.7617 85.7913 39.0847 86.0112 39.5211C86.2345 39.9541 86.3461 40.5055 86.3461 41.1752V46.1275H85.1486V41.2564C85.1486 40.6374 84.9879 40.1588 84.6666 39.8205C84.3486 39.4788 83.9072 39.308 83.3423 39.308C82.9499 39.308 82.5981 39.3909 82.2869 39.5566C81.979 39.7224 81.7355 39.9642 81.5562 40.2822C81.3803 40.6002 81.2923 40.9858 81.2923 41.4391ZM89.1004 49.0501C88.8975 49.0501 88.7165 49.0332 88.5575 48.9994C88.3985 48.969 88.2886 48.9385 88.2277 48.9081L88.5321 47.8527C88.823 47.9271 89.0801 47.9542 89.3034 47.9339C89.5266 47.9136 89.7245 47.8138 89.897 47.6345C90.0729 47.4586 90.2336 47.1728 90.3791 46.777L90.6023 46.1681L87.7203 38.3338H89.0192L91.1706 44.5444H91.2518L93.4032 38.3338H94.7021L91.3939 47.2641C91.245 47.6666 91.0607 47.9998 90.8408 48.2637C90.6209 48.5309 90.3655 48.7288 90.0746 48.8573C89.7871 48.9859 89.4624 49.0501 89.1004 49.0501ZM99.3428 46.2899C98.5918 46.2899 97.944 46.1241 97.3994 45.7926C96.8582 45.4577 96.4404 44.9909 96.1461 44.3922C95.8552 43.7901 95.7097 43.0898 95.7097 42.2915C95.7097 41.4932 95.8552 40.7896 96.1461 40.1807C96.4404 39.5685 96.8497 39.0915 97.374 38.7499C97.9017 38.4048 98.5174 38.2323 99.221 38.2323C99.6269 38.2323 100.028 38.3 100.424 38.4353C100.819 38.5706 101.18 38.7905 101.504 39.0949C101.829 39.396 102.088 39.7951 102.281 40.2924C102.473 40.7896 102.57 41.4019 102.57 42.1292V42.6366H96.5622V41.6015H101.352C101.352 41.1617 101.264 40.7693 101.088 40.4243C100.916 40.0793 100.669 39.807 100.347 39.6074C100.029 39.4078 99.654 39.308 99.221 39.308C98.744 39.308 98.3313 39.4264 97.9829 39.6632C97.6379 39.8966 97.3723 40.201 97.1863 40.5765C97.0002 40.952 96.9072 41.3545 96.9072 41.7841V42.4742C96.9072 43.0628 97.0087 43.5617 97.2117 43.971C97.418 44.377 97.7038 44.6865 98.0692 44.8996C98.4345 45.1093 98.859 45.2142 99.3428 45.2142C99.6573 45.2142 99.9415 45.1702 100.195 45.0823C100.452 44.9909 100.674 44.8556 100.86 44.6763C101.046 44.4937 101.19 44.267 101.291 43.9964L102.448 44.3211C102.326 44.7135 102.122 45.0586 101.834 45.3562C101.547 45.6505 101.191 45.8806 100.769 46.0463C100.346 46.2087 99.8705 46.2899 99.3428 46.2899Z" fill="white"/>
</g>
<defs>
<filter id="filter0_d_457_318" x="0.264319" y="0.752181" width="28.0273" height="31.7417" filterUnits="userSpaceOnUse" color-interpolation-filters="sRGB">
<feFlood flood-opacity="0" result="BackgroundImageFix"/>
<feColorMatrix in="SourceAlpha" type="matrix" values="0 0 0 0 0 0 0 0 0 0 0 0 0 0 0 0 0 0 127 0" result="hardAlpha"/>
<feOffset dy="1.30637"/>
<feGaussianBlur stdDeviation="1.95956"/>
<feColorMatrix type="matrix" values="0 0 0 0 0 0 0 0 0 0 0 0 0 0 0 0 0 0 0.4 0"/>
<feBlend mode="normal" in2="BackgroundImageFix" result="effect1_dropShadow_457_318"/>
<feBlend mode="normal" in="SourceGraphic" in2="effect1_dropShadow_457_318" result="shape"/>
</filter>
<filter id="filter1_d_457_318" x="17.7574" y="26.9021" width="96.6309" height="32.8226" filterUnits="userSpaceOnUse" color-interpolation-filters="sRGB">
<feFlood flood-opacity="0" result="BackgroundImageFix"/>
<feColorMatrix in="SourceAlpha" type="matrix" values="0 0 0 0 0 0 0 0 0 0 0 0 0 0 0 0 0 0 127 0" result="hardAlpha"/>
<feOffset dy="2.61275"/>
<feGaussianBlur stdDeviation="2.61275"/>
<feColorMatrix type="matrix" values="0 0 0 0 0 0 0 0 0 0 0 0 0 0 0 0 0 0 0.12 0"/>
<feBlend mode="normal" in2="BackgroundImageFix" result="effect1_dropShadow_457_318"/>
<feBlend mode="normal" in="SourceGraphic" in2="effect1_dropShadow_457_318" result="shape"/>
</filter>
</defs>
</svg>
